<?xml version="1.0" standalone="no"?>
<!DOCTYPE svg PUBLIC "-//W3C//DTD SVG 20010904//EN"
 "http://www.w3.org/TR/2001/REC-SVG-20010904/DTD/svg10.dtd">
<svg version="1.0" xmlns="http://www.w3.org/2000/svg"
 width="3000.000000pt" height="1056.000000pt" viewBox="0 0 3000.000000 1056.000000"
 preserveAspectRatio="xMidYMid meet">

<g transform="translate(0.000000,1056.000000) scale(0.100000,-0.100000)"
fill="#000000" stroke="none">
<path d="M1590 8000 c0 -1408 2 -2560 5 -2560 3 0 98 71 212 159 271 207 637
473 788 574 327 218 738 347 1104 347 129 0 240 -19 373 -65 54 -19 151 -47
216 -62 104 -24 136 -27 292 -28 198 0 270 14 455 87 397 156 666 412 1255
1193 221 293 346 440 502 590 191 185 343 284 523 344 161 53 293 51 476 -9
158 -52 327 -152 584 -345 210 -158 273 -214 780 -702 513 -492 620 -604 789
-828 66 -88 188 -241 271 -340 83 -99 206 -250 274 -335 170 -213 405 -478
432 -488 5 -2 9 994 9 2512 l0 2516 -4670 0 -4670 0 0 -2560z"/>
<path d="M15354 8422 l-330 -56 -21 -57 -21 -57 102 -4 c94 -3 107 -6 151 -33
36 -22 57 -45 77 -84 l28 -53 0 -320 0 -319 -62 44 c-142 101 -265 140 -433
140 -131 0 -208 -18 -316 -74 -103 -54 -187 -132 -259 -242 -105 -159 -150
-310 -150 -503 0 -190 43 -346 134 -482 237 -358 756 -433 1116 -163 l55 41 3
-101 3 -102 142 6 c78 4 204 7 280 7 l137 0 0 65 0 65 -50 0 c-59 0 -93 15
-136 62 -69 72 -64 -18 -64 1188 l0 1090 -27 -1 c-16 -1 -177 -26 -359 -57z
m-296 -1023 c118 -51 206 -151 247 -282 47 -148 57 -459 20 -600 -23 -87 -59
-150 -130 -225 -171 -182 -349 -181 -494 2 -108 136 -131 215 -138 472 -6 221
5 298 62 412 103 205 271 291 433 221z"/>
<path d="M21089 8337 c-99 -28 -139 -84 -160 -227 -16 -110 -6 -299 21 -410
79 -319 120 -621 120 -880 l0 -190 84 0 83 0 7 77 c3 42 6 123 6 180 0 191 42
519 95 738 41 171 48 229 43 394 -3 150 -5 160 -33 217 -23 44 -40 64 -70 81
-51 27 -137 36 -196 20z"/>
<path d="M16060 8240 l0 -70 63 0 c77 0 153 -33 190 -82 58 -76 57 -61 57
-795 0 -759 0 -763 72 -913 54 -114 167 -227 279 -282 146 -71 318 -101 574
-102 498 0 805 188 912 559 15 53 18 136 22 725 l6 665 27 58 c34 72 67 112
126 155 41 29 52 32 119 32 l73 0 0 50 0 50 -485 0 -485 0 0 -60 0 -60 63 0
c128 0 221 -59 272 -171 l28 -63 12 -575 c13 -622 11 -659 -37 -777 -56 -140
-165 -256 -303 -324 -101 -50 -179 -70 -276 -70 -218 0 -416 115 -511 296 -68
130 -68 123 -68 866 0 445 4 676 11 695 5 15 27 45 47 66 45 46 109 67 209 67
l73 0 0 65 0 65 -535 0 -535 0 0 -70z"/>
<path d="M18710 8241 l0 -58 58 -6 c75 -6 129 -34 180 -92 75 -85 73 -64 70
-955 -3 -775 -3 -786 -24 -831 -25 -53 -80 -110 -132 -135 -20 -10 -67 -20
-104 -22 l-68 -4 0 -54 0 -54 413 0 c228 0 489 -3 580 -7 l167 -6 0 60 0 61
-117 4 c-100 3 -127 8 -174 30 -57 26 -95 66 -118 123 -8 21 -11 129 -9 375
l3 345 320 6 c299 5 325 7 390 28 159 53 307 147 381 243 92 119 134 239 134
383 0 320 -210 537 -590 609 -69 14 -185 16 -721 16 l-639 0 0 -59z m1133
-126 c134 -35 243 -120 301 -236 131 -261 6 -564 -271 -656 -34 -11 -102 -17
-239 -20 l-191 -5 -7 456 c-4 250 -5 460 -1 466 10 17 340 13 408 -5z"/>
<path d="M7436 8184 c-108 -26 -279 -124 -441 -252 -210 -167 -324 -290 -860
-933 -244 -293 -333 -386 -488 -510 -194 -157 -362 -257 -557 -333 -181 -70
-256 -87 -410 -93 -153 -6 -208 2 -610 88 -338 73 -447 75 -691 14 -392 -99
-872 -375 -1359 -782 -168 -141 -367 -299 -407 -324 -22 -13 -23 -19 -23 -164
1 -302 20 -721 40 -883 81 -652 299 -1259 655 -1833 685 -1103 1842 -1881
3130 -2103 451 -77 1003 -87 1500 -25 876 109 1738 499 2414 1093 154 135 508
500 617 636 512 641 818 1350 955 2215 21 128 23 182 26 635 l3 495 -71 55
c-135 103 -329 302 -532 544 -640 763 -935 1087 -1292 1419 -212 197 -977 855
-1062 914 -172 119 -374 167 -537 127z m-3456 -3686 c158 -411 167 -428 217
-428 16 0 23 -6 23 -20 0 -19 -7 -20 -160 -20 -153 0 -160 1 -160 20 0 16 7
20 35 20 30 0 35 3 35 23 0 13 -7 44 -16 70 l-16 47 -134 0 -134 0 -25 -50
c-32 -63 -23 -87 35 -96 24 -4 40 -12 40 -20 0 -11 -26 -14 -130 -14 -122 0
-130 1 -130 19 0 13 9 21 30 26 63 14 73 32 201 355 l122 310 37 0 37 0 93
-242z m3771 209 l50 -25 11 24 c7 15 20 24 35 24 23 0 23 -1 23 -125 0 -118
-1 -125 -20 -125 -14 0 -27 16 -46 53 -52 103 -105 140 -204 141 -118 2 -187
-61 -211 -189 -11 -62 -5 -200 12 -267 32 -123 213 -194 317 -125 l42 27 0 69
c0 58 -3 72 -25 95 -16 17 -34 26 -55 26 -23 0 -30 4 -30 20 0 19 7 20 165 20
142 0 165 -2 165 -15 0 -9 -8 -18 -17 -22 -10 -3 -28 -15 -40 -26 -20 -18 -23
-30 -23 -102 l0 -82 -77 -35 c-101 -47 -170 -62 -252 -55 -140 10 -237 72
-293 184 -27 55 -33 80 -36 154 -6 123 21 212 86 281 25 27 59 56 74 64 97 50
260 56 349 11z m629 19 c0 -8 -16 -15 -41 -19 -74 -10 -79 -21 -79 -174 l0
-133 170 0 170 0 0 124 c0 109 -2 126 -20 149 -15 19 -32 27 -63 29 -30 2 -43
8 -45 21 -3 16 11 17 183 17 171 0 186 -1 183 -17 -2 -11 -18 -20 -46 -26 -31
-6 -43 -14 -47 -30 -3 -12 -4 -143 -3 -292 l3 -270 47 -15 c33 -10 48 -20 48
-32 0 -16 -15 -18 -170 -18 -137 0 -170 3 -170 14 0 8 15 16 36 19 62 10 64
16 64 153 l0 124 -170 0 -170 0 0 -111 c0 -109 0 -111 29 -140 16 -16 39 -29
50 -29 12 0 21 -6 21 -15 0 -13 -26 -15 -170 -15 -163 0 -170 1 -170 20 0 13
7 20 20 20 32 0 68 21 74 44 3 11 6 134 6 271 0 279 -2 289 -65 301 -25 4 -35
11 -35 25 0 18 10 19 180 19 146 0 180 -3 180 -14z m-3800 -16 c0 -15 -7 -20
-29 -20 -61 0 -62 -3 -59 -313 l3 -282 43 -15 c28 -10 42 -20 42 -32 0 -17
-13 -18 -165 -18 -158 0 -165 1 -165 20 0 14 7 20 23 20 12 0 33 7 45 16 22
15 22 17 22 294 0 277 0 279 -22 294 -12 9 -33 16 -45 16 -16 0 -23 6 -23 20
0 19 7 20 165 20 158 0 165 -1 165 -20z m456 -229 c56 -135 106 -251 110 -258
6 -9 44 73 114 247 l105 260 138 0 c110 0 137 -3 137 -14 0 -7 -13 -16 -29
-19 -61 -13 -61 -11 -61 -315 0 -313 2 -322 66 -322 27 0 34 -4 34 -20 0 -20
-5 -20 -172 -18 -155 3 -173 5 -176 21 -3 13 3 17 29 17 56 0 58 9 58 280 l0
245 -117 -288 -117 -288 -33 3 -33 3 -119 265 c-66 146 -126 279 -135 295 -13
27 -14 8 -12 -206 2 -269 2 -267 83 -289 32 -9 44 -18 44 -31 0 -18 -10 -19
-160 -19 -150 0 -160 1 -160 19 0 14 12 22 45 30 76 19 79 31 84 279 1 117 0
229 -4 249 -8 44 -49 83 -86 83 -22 0 -29 5 -29 20 0 20 5 20 147 18 l147 -3
102 -244z m1264 235 c0 -8 -16 -15 -41 -19 -73 -10 -79 -22 -79 -167 l0 -127
61 -7 c34 -3 111 -6 170 -6 l109 0 0 124 c0 109 -2 126 -20 149 -15 19 -32 27
-63 29 -30 2 -43 8 -45 21 -3 16 11 17 177 17 174 0 181 -1 181 -20 0 -15 -7
-20 -28 -20 -63 0 -63 4 -60 -310 l3 -285 43 -15 c28 -10 42 -20 42 -32 0 -17
-13 -18 -165 -18 -133 0 -165 3 -165 14 0 8 16 16 40 20 24 4 43 14 50 25 5
11 10 72 10 135 l0 116 -170 0 -170 0 0 -111 c0 -109 0 -111 29 -140 16 -16
39 -29 50 -29 12 0 21 -6 21 -15 0 -13 -26 -15 -170 -15 -160 0 -170 1 -170
19 0 13 10 20 32 25 60 12 58 4 58 306 0 302 2 294 -58 306 -22 5 -32 12 -32
25 0 18 11 19 180 19 146 0 180 -3 180 -14z m848 -3 c-2 -10 -16 -20 -34 -24
-17 -3 -36 -9 -42 -13 -9 -5 -12 -86 -12 -290 0 -309 -2 -300 58 -312 22 -5
32 -12 32 -25 0 -18 -10 -19 -165 -19 -155 0 -165 1 -165 19 0 14 10 21 35 25
19 4 39 15 45 26 6 11 10 124 10 284 0 290 0 291 -61 303 -20 4 -29 12 -29 24
0 18 10 19 166 19 151 0 165 -2 162 -17z"/>
<path d="M3752 4427 c-23 -63 -42 -117 -42 -120 0 -4 41 -7 91 -7 67 0 90 3
87 13 -9 34 -84 227 -88 227 -3 0 -24 -51 -48 -113z"/>
<path d="M13042 7605 c-72 -16 -197 -68 -280 -117 -31 -18 -95 -71 -143 -118
-74 -74 -93 -99 -137 -190 -69 -140 -87 -231 -79 -400 16 -329 150 -564 396
-694 112 -59 196 -78 366 -83 136 -4 159 -2 247 21 112 28 243 89 331 154 73
52 137 112 137 126 0 6 -23 34 -52 63 l-52 52 -33 -39 c-49 -57 -164 -129
-249 -156 -215 -68 -446 12 -565 197 -60 94 -81 177 -87 342 l-5 147 532 0
531 0 0 113 c0 87 -5 127 -20 171 -77 225 -243 365 -488 412 -92 17 -266 17
-350 -1z m277 -174 c48 -25 118 -101 141 -155 24 -54 34 -116 26 -161 l-7 -35
-294 0 -295 0 0 23 c0 28 30 119 55 167 9 18 35 52 57 76 97 105 215 136 317
85z"/>
<path d="M21075 6423 c-82 -43 -125 -113 -125 -203 0 -128 92 -220 220 -220
126 0 219 92 220 218 0 90 -43 162 -122 203 -47 24 -150 25 -193 2z"/>
</g>
</svg>
