<?xml version="1.0" encoding="UTF-8"?>
<svg version="1.1" xmlns="http://www.w3.org/2000/svg" width="3000" height="1055">
<path d="M0 0 C1.54907522 0.80237158 3.10876626 1.58419018 4.67041016 2.36181641 C18.01887978 9.22847984 29.97278167 18.6857028 41.21679688 28.55175781 C42.83760694 29.96256424 44.47700258 31.34833523 46.12353516 32.72900391 C54.78792707 40.01533664 63.04114568 47.6929465 71.23217773 55.50463867 C73.1062879 57.27426635 74.98995641 59.02814739 76.88793945 60.77172852 C89.94170201 72.81167839 102.43914894 85.41529169 114.98266602 97.98120117 C118.24017408 101.24445404 121.50221974 104.50312855 124.76557255 107.76053524 C127.30942863 110.30076325 129.85088065 112.84338579 132.39163017 115.38672066 C133.59364164 116.58939267 134.79637818 117.79134052 135.9998951 118.99250603 C141.6702916 124.65423276 147.31475787 130.29980883 152.50486755 136.41358948 C154.17191957 138.36250406 155.96285432 140.15535624 157.80712891 141.93603516 C160.90958893 144.99720769 163.78819315 148.16745784 166.62744141 151.47119141 C169.62056797 154.85589188 172.71556045 158.14137096 175.80712891 161.43603516 C180.57270422 166.52327443 185.27879779 171.63528082 189.80712891 176.93603516 C190.74036592 178.01577068 191.67399878 179.09516412 192.60791016 180.17431641 C198.48882015 186.98305791 204.26057081 193.85037979 209.80712891 200.93603516 C210.54503662 201.87092773 210.54503662 201.87092773 211.29785156 202.82470703 C221.21295006 215.38910111 230.77138041 228.18137647 239.86572266 241.35400391 C246.34407009 250.71546242 253.20615873 259.46092651 260.80712891 267.93603516 C261.63470703 268.86287109 262.46228516 269.78970703 263.31494141 270.74462891 C264.73041253 272.32083997 266.15005123 273.89333512 267.57666016 275.45947266 C268.82519487 276.84576163 270.0668878 278.23857129 271.28222656 279.65405273 C282.26139464 292.41833446 294.35292555 304.77842068 307.80712891 314.93603516 C308.80357422 315.72623047 309.80001953 316.51642578 310.82666016 317.33056641 C323.4121403 327.28469444 336.87382614 335.99290775 350.80712891 343.93603516 C351.84981934 344.53134033 351.84981934 344.53134033 352.91357422 345.13867188 C379.08804548 359.90060522 407.45624577 368.96950462 436.80712891 374.93603516 C436.80712891 375.26603516 436.80712891 375.59603516 436.80712891 375.93603516 C384.79738556 383.58756797 335.37464086 355.86360451 294.54174805 327.25341797 C293.65193741 326.63009583 292.76212677 326.00677368 291.84535217 325.36456299 C291.17273849 324.8931488 290.50012482 324.42173462 289.80712891 323.93603516 C289.80166046 325.38586037 289.80166046 325.38586037 289.79608154 326.86497498 C289.75853964 336.14076903 289.70015502 345.41624904 289.62322617 354.69180202 C289.58433082 359.45624769 289.55186817 364.22052451 289.53613281 368.98510742 C289.20650347 462.01184723 262.93429188 554.08275129 176.36181641 671.13525391 C175.04511374 672.5787949 173.73111352 674.02598508 172.4699707 675.51831055 C166.6605532 682.36700631 160.25666518 688.63686805 153.90112305 694.97241211 C151.87449911 696.99367783 149.85327343 699.02023089 147.83251953 701.04736328 C141.6617879 707.22156463 135.50323603 713.32605107 128.80712891 718.93603516 C127.72321041 719.88440332 126.64114197 720.83489059 125.56103516 721.78759766 C98.78657345 745.14289105 69.23860983 764.45802452 37.80712891 780.93603516 C36.85999023 781.43490234 35.91285156 781.93376953 34.93701172 782.44775391 C-25.97359665 814.32696905 -94.95018912 831.90411255 -163.75146484 832.13916016 C-164.41488451 832.14198753 -165.07830418 832.14481491 -165.76182747 832.14772797 C-169.2871042 832.16257254 -172.81234172 832.17188913 -176.33764648 832.17626953 C-179.16916115 832.18060717 -182.000363 832.19433525 -184.83178711 832.21728516 C-211.32170669 832.42719934 -237.57142657 830.96314537 -263.69287109 826.24853516 C-264.40202667 826.1228717 -265.11118225 825.99720825 -265.84182739 825.86773682 C-303.55257807 819.15309467 -340.35969298 807.91609315 -375.19287109 791.93603516 C-376.29920898 791.42959473 -377.40554688 790.9231543 -378.54541016 790.40136719 C-416.20983134 773.01408324 -452.20349722 751.07755544 -483.34375 723.51416016 C-484.69086599 722.3644694 -486.06736536 721.24894597 -487.45996094 720.15478516 C-495.76779938 713.60212385 -503.17502735 706.25808514 -510.62744141 698.76220703 C-512.81371985 696.56520676 -515.01049047 694.37910838 -517.20849609 692.19384766 C-523.9111515 685.49764386 -530.39410823 678.81346624 -536.26025391 671.36376953 C-538.20116171 668.92562057 -540.23470359 666.61331437 -542.32568359 664.30322266 C-589.46523294 611.76299408 -620.88087674 541.13775986 -636.19287109 472.93603516 C-636.54841064 471.35435547 -636.54841064 471.35435547 -636.91113281 469.74072266 C-639.88000323 456.21233668 -641.86519759 442.62246279 -643.44287109 428.87353516 C-643.52604584 428.15253632 -643.60922058 427.43153748 -643.69491577 426.68869019 C-646.06397462 405.85246481 -646.44499708 385.04638942 -646.72509766 364.10076904 C-646.77604617 360.35245833 -646.83134249 356.60421176 -646.88623047 352.85595703 C-646.9926057 345.54937126 -647.0942992 338.24273082 -647.19287109 330.93603516 C-647.74767151 331.32707932 -648.30247192 331.71812347 -648.87408447 332.12101746 C-651.44255607 333.92974651 -654.0130135 335.73563405 -656.58349609 337.54150391 C-657.45570801 338.15634644 -658.32791992 338.77118896 -659.2265625 339.40466309 C-673.03063948 349.09369491 -687.32832319 357.96854638 -702.19287109 365.93603516 C-702.80066406 366.26522949 -703.40845703 366.59442383 -704.03466797 366.93359375 C-735.03982539 383.58604356 -768.30834207 395.81474675 -803.31396484 385.52197266 C-803.93400391 385.32861328 -804.55404297 385.13525391 -805.19287109 384.93603516 C-805.19287109 384.27603516 -805.19287109 383.61603516 -805.19287109 382.93603516 C-804.02498047 382.61892578 -802.85708984 382.30181641 -801.65380859 381.97509766 C-778.26917322 375.51818157 -755.25372176 368.08000905 -733.19287109 357.93603516 C-731.93700195 357.37263428 -731.93700195 357.37263428 -730.65576172 356.79785156 C-711.61072558 348.24783059 -693.26891329 337.96531185 -676.19287109 325.93603516 C-674.88445287 325.02692831 -673.57584384 324.11809606 -672.26708984 323.20947266 C-655.74107029 311.68492259 -639.62654069 299.73759669 -624.70458984 286.17431641 C-620.32655816 282.27289781 -615.76065879 278.61153832 -611.19287109 274.93603516 C-610.07151808 274.02229074 -608.95043598 273.10821377 -607.82958984 272.19384766 C-599.43015438 265.3731068 -590.81856282 258.88348607 -582.07568359 252.51025391 C-578.86050676 250.16641432 -575.66957929 247.79496664 -572.49755859 245.39306641 C-526.71731902 210.84988167 -471.37693577 189.97617278 -413.37695312 196.60961914 C-402.91132987 198.08905859 -392.74923023 201.08595422 -382.62792969 204.06689453 C-348.17565943 214.12720561 -314.9439559 206.77766434 -283.74267578 190.35302734 C-277.81665817 187.05978661 -272.47612083 183.16676248 -267.19287109 178.93603516 C-265.73880859 177.79328125 -265.73880859 177.79328125 -264.25537109 176.62744141 C-258.92869256 172.35870041 -253.81231547 167.87710339 -248.77490234 163.27197266 C-246.67177879 161.36929809 -244.54295858 159.51103958 -242.39599609 157.65869141 C-238.13504595 153.93765105 -234.11771026 150.00907901 -230.13037109 145.99853516 C-229.46199219 145.33402344 -228.79361328 144.66951172 -228.10498047 143.98486328 C-223.59584757 139.46696628 -219.34438987 134.7829068 -215.19287109 129.93603516 C-214.25425354 128.85384383 -213.3154617 127.77180363 -212.37646484 126.68994141 C-197.45965767 109.38655271 -183.03209493 91.66628956 -169.19311523 73.48950195 C-163.46161903 65.96206302 -157.65375927 58.49530284 -151.83007812 51.0390625 C-150.29636095 49.06897008 -148.77235236 47.09182023 -147.25146484 45.11181641 C-141.26293591 37.34618231 -134.95631056 30.03616121 -128.19287109 22.93603516 C-127.40525391 22.08396484 -126.61763672 21.23189453 -125.80615234 20.35400391 C-114.72009343 8.71822306 -101.37737978 0.29427331 -87.19287109 -7.06396484 C-86.22736328 -7.56798828 -85.26185547 -8.07201172 -84.26708984 -8.59130859 C-54.75727467 -22.9746111 -27.58133844 -14.34998225 0 0 Z M-423.19287109 358.93603516 C-423.63042725 360.03254395 -424.0679834 361.12905273 -424.51879883 362.25878906 C-425.13799364 363.81006945 -425.75721817 365.36133797 -426.37646484 366.91259766 C-426.87300568 368.15657822 -426.87300568 368.15657822 -427.37957764 369.4256897 C-429.1990366 373.98229626 -431.02127047 378.53776741 -432.84838867 383.09130859 C-433.583018 384.92235919 -434.3176372 386.75341386 -435.05224609 388.58447266 C-435.41436691 389.48689697 -435.77648773 390.38932129 -436.14958191 391.3190918 C-438.15353485 396.3196893 -440.13321408 401.32833627 -442.08349609 406.35009766 C-442.4825415 407.36378418 -442.88158691 408.3774707 -443.29272461 409.421875 C-443.99502133 411.20670181 -444.68643134 412.9958686 -445.36450195 414.79003906 C-447.66059275 420.56598302 -450.17524776 423.59486923 -456.00537109 426.18603516 C-456.72724609 426.43353516 -457.44912109 426.68103516 -458.19287109 426.93603516 C-458.19287109 427.59603516 -458.19287109 428.25603516 -458.19287109 428.93603516 C-450.27287109 428.93603516 -442.35287109 428.93603516 -434.19287109 428.93603516 C-434.19287109 428.27603516 -434.19287109 427.61603516 -434.19287109 426.93603516 C-437.16287109 426.60603516 -440.13287109 426.27603516 -443.19287109 425.93603516 C-441.10587785 415.79921083 -441.10587785 415.79921083 -439.19287109 412.93603516 C-435.9522309 411.81520178 -432.73972747 411.74128003 -429.33349609 411.61962891 C-428.21845703 411.57773437 -427.10341797 411.53583984 -425.95458984 411.49267578 C-424.79572266 411.45335937 -423.63685547 411.41404297 -422.44287109 411.37353516 C-421.26853516 411.33035156 -420.09419922 411.28716797 -418.88427734 411.24267578 C-415.98725659 411.13668722 -413.09015174 411.03461878 -410.19287109 410.93603516 C-409.85812442 412.36087852 -409.52836445 413.78689399 -409.20068359 415.21337891 C-409.01650879 416.00736084 -408.83233398 416.80134277 -408.64257812 417.61938477 C-408.09798909 420.42481656 -408.04675409 423.08675357 -408.19287109 425.93603516 C-411.65787109 426.43103516 -411.65787109 426.43103516 -415.19287109 426.93603516 C-414.86287109 427.59603516 -414.53287109 428.25603516 -414.19287109 428.93603516 C-404.29287109 428.93603516 -394.39287109 428.93603516 -384.19287109 428.93603516 C-384.19287109 428.27603516 -384.19287109 427.61603516 -384.19287109 426.93603516 C-385.80162109 426.47197266 -385.80162109 426.47197266 -387.44287109 425.99853516 C-390.78671603 424.56544383 -391.84077841 423.23910093 -393.19726562 419.88964844 C-393.53018616 419.08263489 -393.86310669 418.27562134 -394.20611572 417.44415283 C-394.531745 416.616474 -394.85737427 415.78879517 -395.19287109 414.93603516 C-395.49739197 414.18199402 -395.80191284 413.42795288 -396.11566162 412.65106201 C-397.05113863 410.31208553 -397.96431764 407.96540176 -398.87255859 405.61572266 C-399.20780548 404.75399445 -399.54305237 403.89226624 -399.88845825 403.00442505 C-400.9502982 400.27408081 -402.00924592 397.54262725 -403.06787109 394.81103516 C-404.46005713 391.22469185 -405.85348872 387.63883407 -407.24755859 384.05322266 C-407.5829364 383.19017517 -407.91831421 382.32712769 -408.26385498 381.43792725 C-411.19065175 373.91722083 -414.17567577 366.42091771 -417.19287109 358.93603516 C-419.17287109 358.93603516 -421.15287109 358.93603516 -423.19287109 358.93603516 Z M-2.19287109 358.93603516 C-2.19287109 359.92603516 -2.19287109 360.91603516 -2.19287109 361.93603516 C0.44712891 362.92603516 3.08712891 363.91603516 5.80712891 364.93603516 C5.83025742 372.48101749 5.84804659 380.02599616 5.85894108 387.57100582 C5.86416879 391.074124 5.87126441 394.577218 5.88256836 398.08032227 C5.89547096 402.10384356 5.90035802 406.1273393 5.90478516 410.15087891 C5.90994644 411.41439682 5.91510773 412.67791473 5.92042542 413.97972107 C5.92050095 415.14084915 5.92057648 416.30197723 5.9206543 417.49829102 C5.92287491 418.52643417 5.92509552 419.55457733 5.92738342 420.61387634 C5.80712891 422.93603516 5.80712891 422.93603516 4.80712891 423.93603516 C2.47894927 424.30364247 0.14529041 424.63845097 -2.19287109 424.93603516 C-2.52287109 425.92603516 -2.85287109 426.91603516 -3.19287109 427.93603516 C7.69712891 427.93603516 18.58712891 427.93603516 29.80712891 427.93603516 C29.80712891 427.27603516 29.80712891 426.61603516 29.80712891 425.93603516 C28.67275391 425.64728516 27.53837891 425.35853516 26.36962891 425.06103516 C24.60619141 424.50416016 24.60619141 424.50416016 22.80712891 423.93603516 C21.21375613 420.7492896 21.46723599 417.25606631 21.30712891 413.74853516 C21.23717566 412.25490384 21.16428929 410.76140682 21.08837891 409.26806641 C21.05808594 408.60524658 21.02779297 407.94242676 20.99658203 407.25952148 C20.7419661 404.13686712 20.25020451 401.03756439 19.80712891 397.93603516 C31.35712891 397.93603516 42.90712891 397.93603516 54.80712891 397.93603516 C54.80712891 406.84603516 54.80712891 415.75603516 54.80712891 424.93603516 C50.35212891 425.43103516 50.35212891 425.43103516 45.80712891 425.93603516 C45.80712891 426.59603516 45.80712891 427.25603516 45.80712891 427.93603516 C56.36712891 427.93603516 66.92712891 427.93603516 77.80712891 427.93603516 C77.47712891 426.94603516 77.14712891 425.95603516 76.80712891 424.93603516 C74.49683806 424.19344167 72.16137691 423.52459716 69.80712891 422.93603516 C68.80712891 421.93603516 68.80712891 421.93603516 68.68687439 419.65184021 C68.689095 418.64146194 68.69131561 417.63108368 68.69360352 416.59008789 C68.69371681 414.8784269 68.69371681 414.8784269 68.6938324 413.13218689 C68.69899368 411.89054276 68.70415497 410.64889862 68.70947266 409.36962891 C68.7108876 408.10586929 68.71230255 406.84210968 68.71376038 405.54005432 C68.71842309 402.17478627 68.7274141 398.80958526 68.73846436 395.44433594 C68.74868045 392.01253846 68.75325842 388.58073407 68.75830078 385.14892578 C68.7693551 378.41127691 68.78611181 371.67365991 68.80712891 364.93603516 C71.77712891 363.94603516 74.74712891 362.95603516 77.80712891 361.93603516 C77.80712891 360.94603516 77.80712891 359.95603516 77.80712891 358.93603516 C66.25712891 358.93603516 54.70712891 358.93603516 42.80712891 358.93603516 C42.80712891 359.92603516 42.80712891 360.91603516 42.80712891 361.93603516 C43.42201172 361.95021484 44.03689453 361.96439453 44.67041016 361.97900391 C45.88277344 362.05054688 45.88277344 362.05054688 47.11962891 362.12353516 C47.92013672 362.15833984 48.72064453 362.19314453 49.54541016 362.22900391 C51.80712891 362.93603516 51.80712891 362.93603516 53.41650391 365.10791016 C54.97097189 368.26924392 55.22898015 370.38823359 55.31884766 373.89306641 C55.35196045 374.89571533 55.38507324 375.89836426 55.41918945 376.93139648 C55.44408447 378.19105225 55.46897949 379.45070801 55.49462891 380.74853516 C55.64931641 386.78134766 55.64931641 386.78134766 55.80712891 392.93603516 C43.92712891 392.93603516 32.04712891 392.93603516 19.80712891 392.93603516 C19.91025391 388.54291016 20.01337891 384.14978516 20.11962891 379.62353516 C20.14452393 378.24125732 20.16941895 376.85897949 20.19506836 375.43481445 C20.22818115 374.34595947 20.26129395 373.25710449 20.29541016 372.13525391 C20.32159424 371.01981201 20.34777832 369.90437012 20.37475586 368.75512695 C20.80712891 365.93603516 20.80712891 365.93603516 22.21142578 364.08056641 C25.12583612 361.99018152 28.30130287 362.22339795 31.80712891 361.93603516 C31.80712891 360.94603516 31.80712891 359.95603516 31.80712891 358.93603516 C20.58712891 358.93603516 9.36712891 358.93603516 -2.19287109 358.93603516 Z M-379.19287109 359.93603516 C-379.19287109 360.92603516 -379.19287109 361.91603516 -379.19287109 362.93603516 C-376.55287109 363.59603516 -373.91287109 364.25603516 -371.19287109 364.93603516 C-371.16972457 372.46374673 -371.15194419 379.99145462 -371.14105892 387.51919365 C-371.13583516 391.01443614 -371.12874669 394.50965432 -371.11743164 398.00488281 C-371.10451135 402.0209985 -371.0996387 406.03708856 -371.09521484 410.05322266 C-371.09005356 411.31157928 -371.08489227 412.56993591 -371.07957458 413.86642456 C-371.07949905 415.02747711 -371.07942352 416.18852966 -371.0793457 417.38476562 C-371.07712509 418.41068817 -371.07490448 419.43661072 -371.07261658 420.49362183 C-371.19287109 422.93603516 -371.19287109 422.93603516 -372.19287109 424.93603516 C-374.50693329 425.66679164 -376.84115979 426.33741773 -379.19287109 426.93603516 C-379.19287109 427.59603516 -379.19287109 428.25603516 -379.19287109 428.93603516 C-368.96287109 428.93603516 -358.73287109 428.93603516 -348.19287109 428.93603516 C-348.19287109 427.94603516 -348.19287109 426.95603516 -348.19287109 425.93603516 C-349.32724609 425.64728516 -350.46162109 425.35853516 -351.63037109 425.06103516 C-353.39380859 424.50416016 -353.39380859 424.50416016 -355.19287109 423.93603516 C-356.46850301 421.38477133 -356.33376353 419.56411985 -356.35400391 416.70776367 C-356.36361145 415.61645645 -356.37321899 414.52514923 -356.38311768 413.40077209 C-356.38736755 412.21744797 -356.39161743 411.03412384 -356.39599609 409.81494141 C-356.40169617 408.60410385 -356.40739624 407.3932663 -356.41326904 406.14573669 C-356.42272813 403.58097205 -356.42925662 401.01619521 -356.43310547 398.45141602 C-356.44282216 394.51834054 -356.47384244 390.585785 -356.50537109 386.65283203 C-356.51189975 384.16520494 -356.51715076 381.67757409 -356.52099609 379.18994141 C-356.5333429 378.00864151 -356.5456897 376.82734161 -356.55841064 375.61024475 C-356.55540955 374.51578537 -356.55240845 373.42132599 -356.54931641 372.29370117 C-356.55296204 371.32932632 -356.55660767 370.36495148 -356.56036377 369.37135315 C-356.19287109 366.93603516 -356.19287109 366.93603516 -354.83856201 365.14414978 C-352.70391497 363.57708862 -350.78930419 363.28690449 -348.19287109 362.93603516 C-348.19287109 361.94603516 -348.19287109 360.95603516 -348.19287109 359.93603516 C-358.42287109 359.93603516 -368.65287109 359.93603516 -379.19287109 359.93603516 Z M-340.19287109 359.93603516 C-340.19287109 360.92603516 -340.19287109 361.91603516 -340.19287109 362.93603516 C-339.09974609 363.18353516 -338.00662109 363.43103516 -336.88037109 363.68603516 C-332.9604192 365.01483241 -332.18216435 365.48830281 -330.19287109 368.93603516 C-329.82537842 371.32629395 -329.82537842 371.32629395 -329.83642578 374.00830078 C-329.83342468 375.01614624 -329.83042358 376.0239917 -329.82733154 377.06237793 C-329.83967834 378.14474731 -329.85202515 379.2271167 -329.86474609 380.34228516 C-329.86755585 382.01756287 -329.86755585 382.01756287 -329.87042236 383.72668457 C-329.87714217 386.08702583 -329.89105517 388.44735596 -329.91162109 390.80761719 C-329.94275145 394.42214299 -329.95259061 398.03623238 -329.95849609 401.65087891 C-329.96766735 403.94385298 -329.97804351 406.23682261 -329.98974609 408.52978516 C-329.99612091 410.15333923 -329.99612091 410.15333923 -330.00262451 411.80969238 C-330.01703583 413.32146057 -330.01703583 413.32146057 -330.03173828 414.86376953 C-330.03856628 415.74883179 -330.04539429 416.63389404 -330.0524292 417.54577637 C-330.19287109 419.93603516 -330.19287109 419.93603516 -331.19287109 423.93603516 C-336.14287109 424.92603516 -336.14287109 424.92603516 -341.19287109 425.93603516 C-341.19287109 426.92603516 -341.19287109 427.91603516 -341.19287109 428.93603516 C-331.29287109 428.93603516 -321.39287109 428.93603516 -311.19287109 428.93603516 C-311.52287109 427.94603516 -311.85287109 426.95603516 -312.19287109 425.93603516 C-314.47751236 425.3414025 -316.71921631 425.11369516 -319.06396484 424.85400391 C-321.19287109 423.93603516 -321.19287109 423.93603516 -322.3137207 421.53051758 C-323.47172748 416.7959067 -323.44074997 412.36117266 -323.38818359 407.50634766 C-323.3853537 406.51601532 -323.3825238 405.52568298 -323.37960815 404.50534058 C-323.36845579 401.35711339 -323.34336016 398.20917567 -323.31787109 395.06103516 C-323.30783491 392.92041428 -323.29871018 390.77978892 -323.29052734 388.63916016 C-323.26853267 383.40468719 -323.23510442 378.17038186 -323.19287109 372.93603516 C-319.9510406 376.71817074 -318.19315163 381.07027608 -316.20849609 385.58447266 C-315.82981384 386.43345123 -315.45113159 387.28242981 -315.06097412 388.15713501 C-313.85015586 390.8730033 -312.64597815 393.59174306 -311.44287109 396.31103516 C-306.26808851 407.98492224 -301.04968522 419.58519741 -295.19287109 430.93603516 C-293.54287109 430.93603516 -291.89287109 430.93603516 -290.19287109 430.93603516 C-285.58397444 421.23309484 -281.58311094 411.27956542 -277.55249023 401.32666016 C-276.37101114 398.41295209 -275.18146804 395.50261645 -273.99169922 392.59228516 C-273.23925269 390.73831866 -272.48728199 388.88415897 -271.73583984 387.02978516 C-271.37967087 386.16107788 -271.02350189 385.29237061 -270.65653992 384.39733887 C-270.17021843 383.1896283 -270.17021843 383.1896283 -269.67407227 381.95751953 C-269.38715012 381.25123413 -269.10022797 380.54494873 -268.80461121 379.81726074 C-268.03824992 377.79024186 -268.03824992 377.79024186 -268.19287109 374.93603516 C-267.53287109 374.93603516 -266.87287109 374.93603516 -266.19287109 374.93603516 C-266.14217699 381.69869792 -266.10714002 388.46131171 -266.08300781 395.22412109 C-266.0729479 397.52492097 -266.05929848 399.82570806 -266.04199219 402.12646484 C-266.01774374 405.43281206 -266.00638786 408.73899028 -265.99755859 412.04541016 C-265.98723602 413.07470642 -265.97691345 414.10400269 -265.96627808 415.16448975 C-265.96612701 416.12518372 -265.96597595 417.08587769 -265.96582031 418.07568359 C-265.96137909 418.91951599 -265.95693787 419.76334839 -265.95236206 420.63275146 C-266.22117593 423.20710214 -266.74135436 424.79388254 -268.19287109 426.93603516 C-271.31787109 427.68603516 -271.31787109 427.68603516 -274.19287109 427.93603516 C-274.19287109 428.59603516 -274.19287109 429.25603516 -274.19287109 429.93603516 C-263.30287109 429.93603516 -252.41287109 429.93603516 -241.19287109 429.93603516 C-241.19287109 429.27603516 -241.19287109 428.61603516 -241.19287109 427.93603516 C-243.83287109 427.60603516 -246.47287109 427.27603516 -249.19287109 426.93603516 C-250.14110634 423.72960712 -250.32482771 420.83441951 -250.33813477 417.49658203 C-250.34451462 416.40865356 -250.35089447 415.3207251 -250.35746765 414.1998291 C-250.35858047 413.0299646 -250.3596933 411.8601001 -250.36083984 410.65478516 C-250.36583244 408.84633118 -250.36583244 408.84633118 -250.3709259 407.00134277 C-250.3759876 404.45272198 -250.37833446 401.90409456 -250.37817383 399.35546875 C-250.38036258 395.45122416 -250.39853285 391.54726108 -250.41748047 387.64306641 C-250.42041405 385.16780696 -250.42239908 382.69254616 -250.42333984 380.21728516 C-250.43052536 379.04742065 -250.43771088 377.87755615 -250.44511414 376.67224121 C-250.44203751 375.58431274 -250.43896088 374.49638428 -250.43579102 373.37548828 C-250.43721603 372.41936646 -250.43864105 371.46324463 -250.44010925 370.47814941 C-250.17780729 367.78114846 -249.73221045 366.16249534 -248.19287109 363.93603516 C-245.06787109 363.18603516 -245.06787109 363.18603516 -242.19287109 362.93603516 C-242.19287109 361.94603516 -242.19287109 360.95603516 -242.19287109 359.93603516 C-250.77287109 359.93603516 -259.35287109 359.93603516 -268.19287109 359.93603516 C-269.62501953 363.45001953 -271.05716797 366.96400391 -272.53271484 370.58447266 C-273.91590798 373.97680239 -275.29937137 377.36902178 -276.68286133 380.76123047 C-277.64636064 383.12407075 -278.60957769 385.48702615 -279.57250977 387.85009766 C-280.95434065 391.24102389 -282.33717654 394.63153874 -283.72021484 398.02197266 C-284.15252914 399.08346527 -284.58484344 400.14495789 -285.03025818 401.23861694 C-285.43059769 402.21948273 -285.83093719 403.20034851 -286.2434082 404.2109375 C-286.59648544 405.07697601 -286.94956268 405.94301453 -287.31333923 406.83529663 C-287.89404207 408.22228996 -288.52041793 409.59112883 -289.19287109 410.93603516 C-289.85287109 410.93603516 -290.51287109 410.93603516 -291.19287109 410.93603516 C-291.40949402 410.41509277 -291.62611694 409.89415039 -291.8493042 409.35742188 C-294.11731121 403.90482244 -296.38931237 398.45389968 -298.66357422 393.00390625 C-299.51029018 390.97340382 -300.35600833 388.942485 -301.20068359 386.91113281 C-302.4193738 383.9808152 -303.64171923 381.05204499 -304.86474609 378.12353516 C-305.23782898 377.22425293 -305.61091187 376.3249707 -305.99530029 375.3984375 C-306.3553717 374.53814941 -306.71544312 373.67786133 -307.08642578 372.79150391 C-307.3973114 372.04537842 -307.70819702 371.29925293 -308.02850342 370.53051758 C-309.63709332 366.94620456 -311.43589293 363.44999147 -313.19287109 359.93603516 C-322.10287109 359.93603516 -331.01287109 359.93603516 -340.19287109 359.93603516 Z M-211.19287109 359.93603516 C-211.19287109 360.92603516 -211.19287109 361.91603516 -211.19287109 362.93603516 C-208.22287109 363.92603516 -205.25287109 364.91603516 -202.19287109 365.93603516 C-202.19287109 385.07603516 -202.19287109 404.21603516 -202.19287109 423.93603516 C-205.16287109 424.92603516 -208.13287109 425.91603516 -211.19287109 426.93603516 C-211.19287109 427.59603516 -211.19287109 428.25603516 -211.19287109 428.93603516 C-200.30287109 428.93603516 -189.41287109 428.93603516 -178.19287109 428.93603516 C-178.19287109 428.27603516 -178.19287109 427.61603516 -178.19287109 426.93603516 C-179.32724609 426.64728516 -180.46162109 426.35853516 -181.63037109 426.06103516 C-183.39380859 425.50416016 -183.39380859 425.50416016 -185.19287109 424.93603516 C-186.46126208 422.39925318 -186.504534 420.32163834 -186.72802734 417.49072266 C-186.81503906 416.41435547 -186.90205078 415.33798828 -186.99169922 414.22900391 C-187.07871094 413.10107422 -187.16572266 411.97314453 -187.25537109 410.81103516 C-187.34625 409.67537109 -187.43712891 408.53970703 -187.53076172 407.36962891 C-187.75516335 404.55870315 -187.97570275 401.74752749 -188.19287109 398.93603516 C-187.52344482 398.94127197 -186.85401855 398.94650879 -186.16430664 398.9519043 C-183.06967138 398.97295986 -179.97505129 398.98578486 -176.88037109 398.99853516 C-175.3015918 399.01110352 -175.3015918 399.01110352 -173.69091797 399.02392578 C-172.11987305 399.02875977 -172.11987305 399.02875977 -170.51708984 399.03369141 C-169.56922607 399.03892822 -168.6213623 399.04416504 -167.64477539 399.04956055 C-162.81580633 398.89074658 -158.00460867 398.37346584 -153.19287109 397.93603516 C-153.19287109 407.17603516 -153.19287109 416.41603516 -153.19287109 425.93603516 C-157.64787109 426.43103516 -157.64787109 426.43103516 -162.19287109 426.93603516 C-162.52287109 427.59603516 -162.85287109 428.25603516 -163.19287109 428.93603516 C-152.30287109 428.93603516 -141.41287109 428.93603516 -130.19287109 428.93603516 C-130.52287109 427.94603516 -130.85287109 426.95603516 -131.19287109 425.93603516 C-133.50316194 425.19344167 -135.83862309 424.52459716 -138.19287109 423.93603516 C-139.19287109 422.93603516 -139.19287109 422.93603516 -139.31312561 420.65184021 C-139.310905 419.64146194 -139.30868439 418.63108368 -139.30639648 417.59008789 C-139.30628319 415.8784269 -139.30628319 415.8784269 -139.3061676 414.13218689 C-139.30100632 412.89054276 -139.29584503 411.64889862 -139.29052734 410.36962891 C-139.2891124 409.10586929 -139.28769745 407.84210968 -139.28623962 406.54005432 C-139.28157691 403.17478627 -139.2725859 399.80958526 -139.26153564 396.44433594 C-139.25131955 393.01253846 -139.24674158 389.58073407 -139.24169922 386.14892578 C-139.2306449 379.41127691 -139.21388819 372.67365991 -139.19287109 365.93603516 C-136.22287109 364.94603516 -133.25287109 363.95603516 -130.19287109 362.93603516 C-130.19287109 361.94603516 -130.19287109 360.95603516 -130.19287109 359.93603516 C-141.74287109 359.93603516 -153.29287109 359.93603516 -165.19287109 359.93603516 C-165.19287109 360.92603516 -165.19287109 361.91603516 -165.19287109 362.93603516 C-164.57798828 362.95021484 -163.96310547 362.96439453 -163.32958984 362.97900391 C-162.11722656 363.05054688 -162.11722656 363.05054688 -160.88037109 363.12353516 C-160.07986328 363.15833984 -159.27935547 363.19314453 -158.45458984 363.22900391 C-156.19287109 363.93603516 -156.19287109 363.93603516 -154.58349609 366.10791016 C-153.02902811 369.26924392 -152.77101985 371.38823359 -152.68115234 374.89306641 C-152.64803955 375.89571533 -152.61492676 376.89836426 -152.58081055 377.93139648 C-152.55591553 379.19105225 -152.53102051 380.45070801 -152.50537109 381.74853516 C-152.35068359 387.78134766 -152.35068359 387.78134766 -152.19287109 393.93603516 C-164.07287109 393.93603516 -175.95287109 393.93603516 -188.19287109 393.93603516 C-188.08974609 389.35728516 -187.98662109 384.77853516 -187.88037109 380.06103516 C-187.85547607 378.61744629 -187.83058105 377.17385742 -187.80493164 375.68652344 C-187.77181885 374.55456543 -187.73870605 373.42260742 -187.70458984 372.25634766 C-187.67840576 371.09377441 -187.65222168 369.93120117 -187.62524414 368.73339844 C-187.48256104 367.81026855 -187.33987793 366.88713867 -187.19287109 365.93603516 C-184.29194607 364.00208514 -183.29612373 363.63471574 -180.00537109 363.31103516 C-178.74724609 363.18728516 -177.48912109 363.06353516 -176.19287109 362.93603516 C-176.19287109 361.94603516 -176.19287109 360.95603516 -176.19287109 359.93603516 C-187.74287109 359.93603516 -199.29287109 359.93603516 -211.19287109 359.93603516 Z M-123.19287109 359.93603516 C-123.19287109 360.92603516 -123.19287109 361.91603516 -123.19287109 362.93603516 C-120.55287109 363.92603516 -117.91287109 364.91603516 -115.19287109 365.93603516 C-115.19287109 385.07603516 -115.19287109 404.21603516 -115.19287109 423.93603516 C-117.83287109 424.92603516 -120.47287109 425.91603516 -123.19287109 426.93603516 C-123.19287109 427.59603516 -123.19287109 428.25603516 -123.19287109 428.93603516 C-112.63287109 428.93603516 -102.07287109 428.93603516 -91.19287109 428.93603516 C-91.52287109 427.94603516 -91.85287109 426.95603516 -92.19287109 425.93603516 C-95.65787109 425.44103516 -95.65787109 425.44103516 -99.19287109 424.93603516 C-99.19287109 404.80603516 -99.19287109 384.67603516 -99.19287109 363.93603516 C-96.55287109 363.60603516 -93.91287109 363.27603516 -91.19287109 362.93603516 C-91.19287109 361.94603516 -91.19287109 360.95603516 -91.19287109 359.93603516 C-101.75287109 359.93603516 -112.31287109 359.93603516 -123.19287109 359.93603516 Z M-74.19287109 371.93603516 C-75.88601292 374.50460827 -77.10672207 377.06377439 -78.19287109 379.93603516 C-78.58474609 380.88478516 -78.97662109 381.83353516 -79.38037109 382.81103516 C-82.33419804 394.17190801 -81.36318904 405.31017089 -75.66943359 415.68212891 C-70.16547681 424.08367141 -62.68122721 428.21016268 -53.19287109 430.93603516 C-43.16555033 431.92383537 -34.52389453 430.59212218 -25.19287109 426.93603516 C-24.27763672 426.66662109 -23.36240234 426.39720703 -22.41943359 426.11962891 C-19.55759622 425.04079747 -18.10139851 424.3485258 -16.19287109 421.93603516 C-15.60495399 418.44139748 -15.34210005 415.25442988 -15.43994141 411.72412109 C-15.51814985 408.19142887 -15.5257694 406.36623151 -13.32177734 403.51806641 C-11.33668376 402.04290512 -9.46332921 400.90908864 -7.19287109 399.93603516 C-7.19287109 399.60603516 -7.19287109 399.27603516 -7.19287109 398.93603516 C-17.75287109 398.93603516 -28.31287109 398.93603516 -39.19287109 398.93603516 C-39.19287109 399.59603516 -39.19287109 400.25603516 -39.19287109 400.93603516 C-38.07912109 401.22478516 -36.96537109 401.51353516 -35.81787109 401.81103516 C-32.19287109 402.93603516 -32.19287109 402.93603516 -30.19287109 404.93603516 C-29.94072765 407.79463814 -29.82259329 410.51424575 -29.81787109 413.37353516 C-29.79337891 414.15019531 -29.76888672 414.92685547 -29.74365234 415.72705078 C-29.71422241 421.42174242 -29.71422241 421.42174242 -32.02880859 423.90869141 C-38.17528414 426.82660308 -45.26333041 427.01680569 -51.80615234 425.21728516 C-56.99273014 423.05548466 -61.52522311 420.42625975 -64.0390625 415.16503906 C-66.54845485 408.30516818 -66.70888608 401.74931904 -66.69287109 394.49853516 C-66.72123047 393.33515625 -66.74958984 392.17177734 -66.77880859 390.97314453 C-66.79626346 383.21881818 -65.59239885 377.41038601 -61.19287109 370.93603516 C-55.76462692 365.6370349 -50.44841375 365.61852405 -43.24804688 365.62573242 C-37.48875942 365.74503847 -34.48854702 366.10728052 -30.19287109 369.93603516 C-26.52545811 374.55978311 -23.66095077 379.58852918 -21.19287109 384.93603516 C-20.53287109 384.93603516 -19.87287109 384.93603516 -19.19287109 384.93603516 C-19.19287109 376.68603516 -19.19287109 368.43603516 -19.19287109 359.93603516 C-20.18287109 359.93603516 -21.17287109 359.93603516 -22.19287109 359.93603516 C-22.85287109 361.25603516 -23.51287109 362.57603516 -24.19287109 363.93603516 C-27.28710302 363.45256142 -29.5941982 362.74308943 -32.44287109 361.37353516 C-47.05269834 355.77356342 -64.12573781 360.40077826 -74.19287109 371.93603516 Z " fill="#FEFEFE" transform="translate(805.19287109375,223.06396484375)"/>
<path d="M0 0 C308.22 0 616.44 0 934 0 C934 166.32 934 332.64 934 504 C925.30849107 496.5501352 917.41412333 488.70418079 910 480 C909.12073263 478.99526951 908.24043777 477.9914377 907.359375 476.98828125 C901.21186982 469.95155952 895.42341651 462.71946163 889.79541016 455.26147461 C885.5575514 449.66757734 881.11600823 444.29367736 876.54296875 438.97265625 C874.17257939 436.20174027 871.85887706 433.39483581 869.5625 430.5625 C866.64858133 426.97853586 863.68060291 423.45231703 860.65844727 419.95996094 C852.26640986 410.25988268 844.36516226 400.2712702 836.80419922 389.90991211 C830.51997648 381.29823097 824.11358784 372.94317525 817 365 C816.53851562 364.48211914 816.07703125 363.96423828 815.6015625 363.43066406 C807.1096026 353.96901415 798.1005226 344.99870816 789.125 336 C788.5371875 335.40950867 787.949375 334.81901733 787.34375 334.21063232 C781.62644033 328.47358167 775.92411315 322.79758979 769.75732422 317.5390625 C766.07328528 314.3125855 762.71051794 310.74957087 759.2890625 307.25 C756.35860931 304.2797669 753.38858848 301.43346506 750.21875 298.71875 C744.06846228 293.40983112 738.47734969 287.52006633 732.77734375 281.73828125 C728.20211977 277.12309899 723.58556271 272.65779192 718.64892578 268.43066406 C716.72036662 266.75738057 714.9444843 264.9766228 713.1875 263.125 C709.32570106 259.21050594 705.17776971 255.76994648 700.890625 252.33203125 C698.04964659 250.04005272 695.27654349 247.68186882 692.5 245.3125 C679.71714635 234.65183217 666.07253789 224.88640014 652 216 C651.32227539 215.57203125 650.64455078 215.1440625 649.94628906 214.703125 C628.74440777 201.45803609 605.34223258 192.1538512 579.95703125 196.625 C552.20359979 203.17586264 525.54083289 224.50100307 507.5859375 246.1015625 C505.711542 248.34529701 503.73214518 250.47593733 501.75 252.625 C496.16137568 258.82087722 491.09023146 265.39522947 486 272 C485.13166361 273.12121241 484.26317767 274.24230902 483.39453125 275.36328125 C479.45152773 280.46183551 475.5480199 285.58857631 471.6875 290.75 C452.20976096 316.78902327 432.3011919 342.56688535 409.81201172 366.10009766 C408.60514328 367.36550458 407.40361421 368.6360257 406.20751953 369.91162109 C379.01056648 398.85225274 342.08155677 418.6059984 302.15625 421.18359375 C281.47362643 421.71311875 260.05285887 416.34156528 240.86328125 409.03125 C236.63975529 407.51008922 232.43503325 406.63674935 228 406 C227.23816406 405.88914062 226.47632813 405.77828125 225.69140625 405.6640625 C194.24255504 401.84269142 161.7984843 409.76618908 133 422 C132.24106445 422.32226562 131.48212891 422.64453125 130.70019531 422.9765625 C106.10007496 433.60744455 84.73633548 450.37085684 63.35009766 466.25878906 C61.01356978 467.98994601 58.67025826 469.71144757 56.32421875 471.4296875 C42.75077559 481.37563539 29.35255136 491.54602247 16.03515625 501.83203125 C14.86944092 502.7300647 14.86944092 502.7300647 13.68017578 503.64624023 C12.22699122 504.76642311 10.77599905 505.88945821 9.32763672 507.01586914 C8.68197754 507.5133667 8.03631836 508.01086426 7.37109375 508.5234375 C6.81349365 508.95575684 6.25589355 509.38807617 5.68139648 509.83349609 C4 511 4 511 0 513 C0 343.71 0 174.42 0 0 Z " fill="#FFFFFF" transform="translate(159,0)"/>
<path d="M0 0 C1.54907522 0.80237158 3.10876626 1.58419018 4.67041016 2.36181641 C18.01887978 9.22847984 29.97278167 18.6857028 41.21679688 28.55175781 C42.83760694 29.96256424 44.47700258 31.34833523 46.12353516 32.72900391 C54.78792707 40.01533664 63.04114568 47.6929465 71.23217773 55.50463867 C73.1062879 57.27426635 74.98995641 59.02814739 76.88793945 60.77172852 C89.94170201 72.81167839 102.43914894 85.41529169 114.98266602 97.98120117 C118.24017408 101.24445404 121.50221974 104.50312855 124.76557255 107.76053524 C127.30942863 110.30076325 129.85088065 112.84338579 132.39163017 115.38672066 C133.59364164 116.58939267 134.79637818 117.79134052 135.9998951 118.99250603 C141.6702916 124.65423276 147.31475787 130.29980883 152.50486755 136.41358948 C154.17191957 138.36250406 155.96285432 140.15535624 157.80712891 141.93603516 C160.90958893 144.99720769 163.78819315 148.16745784 166.62744141 151.47119141 C169.62056797 154.85589188 172.71556045 158.14137096 175.80712891 161.43603516 C180.57270422 166.52327443 185.27879779 171.63528082 189.80712891 176.93603516 C190.74036592 178.01577068 191.67399878 179.09516412 192.60791016 180.17431641 C198.48882015 186.98305791 204.26057081 193.85037979 209.80712891 200.93603516 C210.54503662 201.87092773 210.54503662 201.87092773 211.29785156 202.82470703 C221.21295006 215.38910111 230.77138041 228.18137647 239.86572266 241.35400391 C246.34407009 250.71546242 253.20615873 259.46092651 260.80712891 267.93603516 C261.63470703 268.86287109 262.46228516 269.78970703 263.31494141 270.74462891 C264.73041253 272.32083997 266.15005123 273.89333512 267.57666016 275.45947266 C268.82519487 276.84576163 270.0668878 278.23857129 271.28222656 279.65405273 C282.26139464 292.41833446 294.35292555 304.77842068 307.80712891 314.93603516 C308.80357422 315.72623047 309.80001953 316.51642578 310.82666016 317.33056641 C323.4121403 327.28469444 336.87382614 335.99290775 350.80712891 343.93603516 C351.84981934 344.53134033 351.84981934 344.53134033 352.91357422 345.13867188 C379.08804548 359.90060522 407.45624577 368.96950462 436.80712891 374.93603516 C436.80712891 375.26603516 436.80712891 375.59603516 436.80712891 375.93603516 C388.092771 383.10275978 340.50773182 358.8332115 301.71923828 332.24609375 C300.03022218 331.08888481 298.33331703 329.94320868 296.63525391 328.79931641 C292.22975238 325.79497291 288.57782204 322.72361199 284.80712891 318.93603516 C282.80004338 317.20643931 280.78449887 315.50052455 278.74462891 313.81103516 C264.24678864 301.64518792 249.85817966 288.70453724 238.11181641 273.81103516 C235.27108695 270.26734553 232.29597904 266.85485572 229.30712891 263.43603516 C224.81132968 258.28092945 220.4208706 253.06089417 216.11572266 247.74462891 C212.89081568 243.82126492 209.57137744 239.98193079 206.25488281 236.13598633 C203.15260473 232.53019455 200.11239853 228.88390757 197.11962891 225.18603516 C193.56617321 220.80664111 189.84448091 216.62207751 186.04541016 212.45556641 C183.77865732 209.90398599 181.63172804 207.28431984 179.49462891 204.62353516 C175.08574783 199.17227414 170.3718891 194.05890018 165.59228516 188.93603516 C162.82491605 185.96789069 160.14546747 182.93143992 157.48681641 179.86572266 C145.31048792 165.87710342 132.50544194 152.46078936 119.37304688 139.37158203 C117.4084769 137.4124486 115.44941442 135.44791872 113.49072266 133.48291016 C105.21287068 125.19986298 105.21287068 125.19986298 96.49853516 117.38232422 C93.56951898 114.87777863 90.79723779 112.20502107 87.99462891 109.56103516 C82.99589658 104.87815312 77.8672504 100.4607072 72.51806641 96.17822266 C69.51808264 93.69696807 66.65562483 91.08735911 63.80712891 88.43603516 C59.19716642 84.14640463 54.42929096 80.13192168 49.52197266 76.18212891 C46.70039395 73.84772926 44.00122179 71.41612917 41.30712891 68.93603516 C37.72920428 65.64271817 34.09173225 62.48952194 30.30712891 59.43603516 C26.52252556 56.38254837 22.88505354 53.22935215 19.30712891 49.93603516 C14.8264894 45.81869075 10.22763161 41.90642543 5.48681641 38.09228516 C3.74837814 36.69342521 2.0234007 35.27760519 0.31494141 33.84228516 C-15.41353675 20.77709564 -33.77080708 13.21397181 -54.33349609 13.56494141 C-85.14809168 16.52788329 -118.04298901 47.41092039 -137.25146484 69.71337891 C-139.48091171 72.26580399 -141.77288491 74.75491029 -144.06787109 77.24853516 C-148.21213074 81.78778475 -152.11865507 86.47061812 -155.97802734 91.25244141 C-158.14919936 93.88312073 -160.39528466 96.4154594 -162.69287109 98.93603516 C-166.53479049 103.1561746 -170.1540233 107.516307 -173.74365234 111.95166016 C-176.51097911 115.32365003 -179.34437525 118.63265836 -182.19287109 121.93603516 C-186.50932274 126.94547645 -190.73702255 132.01497742 -194.90771484 137.14697266 C-200.9773589 144.55505104 -207.17716137 151.86692892 -213.52099609 159.04150391 C-214.72894267 160.41032188 -215.92547058 161.78924553 -217.11474609 163.17431641 C-221.49636556 168.22676521 -226.07440506 172.64453217 -231.19287109 176.93603516 C-232.11583984 177.74685547 -233.03880859 178.55767578 -233.98974609 179.39306641 C-255.0891247 197.8386464 -278.88196934 212.25581051 -305.44287109 221.24853516 C-306.43681885 221.58643066 -307.4307666 221.92432617 -308.45483398 222.27246094 C-317.92909783 225.37890588 -327.1427022 227.29276002 -337.13037109 227.18603516 C-337.819375 227.19376953 -338.50837891 227.20150391 -339.21826172 227.20947266 C-360.13141435 227.13692052 -380.33297483 222.42797658 -400.65063477 217.953125 C-422.05736026 213.26378877 -440.70001725 211.02227739 -462.19287109 215.93603516 C-462.93472656 216.10232422 -463.67658203 216.26861328 -464.44091797 216.43994141 C-512.28804954 227.41591891 -557.17473824 256.45691181 -594.19287109 287.93603516 C-595.24864906 288.82951445 -596.30464992 289.72273039 -597.36083984 290.61572266 C-599.03083036 292.02888626 -600.70045926 293.44246841 -602.36914062 294.85717773 C-612.71154849 303.62123229 -623.32962797 311.99192826 -634.05371094 320.28173828 C-635.94198923 321.74201832 -637.82767874 323.20554801 -639.71240234 324.67041016 C-642.85828234 327.11115441 -646.02256702 329.52707257 -649.19287109 331.93603516 C-649.73878906 332.35385254 -650.28470703 332.77166992 -650.84716797 333.20214844 C-666.99553359 345.51689576 -684.27219329 356.39117323 -702.19287109 365.93603516 C-703.09803467 366.42547607 -703.09803467 366.42547607 -704.02148438 366.92480469 C-735.0298016 383.58216518 -768.30253442 395.81645438 -803.31396484 385.52197266 C-803.93400391 385.32861328 -804.55404297 385.13525391 -805.19287109 384.93603516 C-805.19287109 384.27603516 -805.19287109 383.61603516 -805.19287109 382.93603516 C-804.02498047 382.61892578 -802.85708984 382.30181641 -801.65380859 381.97509766 C-778.26917322 375.51818157 -755.25372176 368.08000905 -733.19287109 357.93603516 C-731.93700195 357.37263428 -731.93700195 357.37263428 -730.65576172 356.79785156 C-711.61072558 348.24783059 -693.26891329 337.96531185 -676.19287109 325.93603516 C-674.88445287 325.02692831 -673.57584384 324.11809606 -672.26708984 323.20947266 C-655.74107029 311.68492259 -639.62654069 299.73759669 -624.70458984 286.17431641 C-620.32655816 282.27289781 -615.76065879 278.61153832 -611.19287109 274.93603516 C-610.07151808 274.02229074 -608.95043598 273.10821377 -607.82958984 272.19384766 C-599.43015438 265.3731068 -590.81856282 258.88348607 -582.07568359 252.51025391 C-578.86050676 250.16641432 -575.66957929 247.79496664 -572.49755859 245.39306641 C-526.71731902 210.84988167 -471.37693577 189.97617278 -413.37695312 196.60961914 C-402.91132987 198.08905859 -392.74923023 201.08595422 -382.62792969 204.06689453 C-348.17565943 214.12720561 -314.9439559 206.77766434 -283.74267578 190.35302734 C-277.81665817 187.05978661 -272.47612083 183.16676248 -267.19287109 178.93603516 C-265.73880859 177.79328125 -265.73880859 177.79328125 -264.25537109 176.62744141 C-258.92869256 172.35870041 -253.81231547 167.87710339 -248.77490234 163.27197266 C-246.67177879 161.36929809 -244.54295858 159.51103958 -242.39599609 157.65869141 C-238.13504595 153.93765105 -234.11771026 150.00907901 -230.13037109 145.99853516 C-229.46199219 145.33402344 -228.79361328 144.66951172 -228.10498047 143.98486328 C-223.59584757 139.46696628 -219.34438987 134.7829068 -215.19287109 129.93603516 C-214.25425354 128.85384383 -213.3154617 127.77180363 -212.37646484 126.68994141 C-197.45965767 109.38655271 -183.03209493 91.66628956 -169.19311523 73.48950195 C-163.46161903 65.96206302 -157.65375927 58.49530284 -151.83007812 51.0390625 C-150.29636095 49.06897008 -148.77235236 47.09182023 -147.25146484 45.11181641 C-141.26293591 37.34618231 -134.95631056 30.03616121 -128.19287109 22.93603516 C-127.40525391 22.08396484 -126.61763672 21.23189453 -125.80615234 20.35400391 C-114.72009343 8.71822306 -101.37737978 0.29427331 -87.19287109 -7.06396484 C-86.22736328 -7.56798828 -85.26185547 -8.07201172 -84.26708984 -8.59130859 C-54.75727467 -22.9746111 -27.58133844 -14.34998225 0 0 Z " fill="#0CE3B9" transform="translate(805.19287109375,223.06396484375)"/>
<path d="M0 0 C29.37 0 58.74 0 89 0 C92.25598005 6.5119601 95.31174733 12.88316924 98.046875 19.59765625 C98.41513397 20.49264832 98.78339294 21.38764038 99.16281128 22.30975342 C100.36193848 25.22595306 101.55591358 28.14423318 102.75 31.0625 C103.59640837 33.12281835 104.44325774 35.18295559 105.29052734 37.24291992 C107.02338789 41.45635531 108.75480298 45.67038019 110.48535156 49.88476562 C113.83380292 58.03376207 117.20791426 66.17206777 120.58572388 74.30892944 C121.62843542 76.82077577 122.67062242 79.33283911 123.71264648 81.8449707 C125.10334994 85.19765991 126.49421842 88.55028056 127.88525391 91.90283203 C131.5288968 100.68471224 135.17072013 109.46734708 138.8125 118.25 C139.34231979 119.5276825 139.34231979 119.5276825 139.88284302 120.83117676 C146.26301058 136.21756682 152.63483484 151.60739778 159 167 C163.84657641 156.75472425 168.043867 146.2448005 172.3125 135.75 C173.1135137 133.78545882 173.91478744 131.82102365 174.71630859 129.85668945 C175.94527543 126.84469902 177.17408753 123.83264656 178.40209961 120.82026672 C182.29535438 111.27009918 186.20795527 101.72792924 190.125 92.1875 C190.78151974 90.58798251 191.43801385 88.9884545 192.09448242 87.38891602 C193.07708746 84.99472712 194.05971058 82.60054566 195.04243469 80.20640564 C197.38360393 74.50265738 199.72333634 68.79832102 202.0625 63.09375 C203.08932149 60.58988902 204.11616126 58.08603554 205.14300537 55.58218384 C205.76958954 54.05420095 206.39610246 52.52618883 207.02252197 50.99813843 C213.99493619 33.99047158 221.00127679 16.99689924 228 0 C254.4 0 280.8 0 308 0 C308 3.96 308 7.92 308 12 C305.215625 12.12375 305.215625 12.12375 302.375 12.25 C295.77447741 12.80910309 292.42662101 14.57337899 287.75 19.25 C283.33113735 26.19392702 283.67121958 34.2021477 283.58935547 42.1628418 C283.56955627 43.36278778 283.54975708 44.56273376 283.52935791 45.79904175 C283.47715636 49.07982389 283.43330225 52.3605863 283.39335394 55.64153647 C283.34912442 59.11966695 283.29452318 62.59763639 283.24124146 66.07563782 C283.15277878 71.94561292 283.07130434 77.81565063 282.99462891 83.68579102 C282.91689833 89.63510039 282.83398207 95.58430085 282.74462891 101.53344727 C282.73374733 102.25827171 282.72286575 102.98309616 282.71165442 103.72988498 C282.68974265 105.18826794 282.66782588 106.64665083 282.64590406 108.10503364 C282.40939467 123.89636133 282.21364595 139.68788884 282.04039001 155.48003387 C282.0025703 158.77600026 281.95993619 162.07185854 281.91516113 165.36773682 C281.8549172 169.84881049 281.80871722 174.32973781 281.77737808 178.81110573 C281.7645971 180.33538808 281.74681805 181.85963897 281.72338486 183.38379478 C281.58489688 192.68945673 281.88742017 199.37559569 287.1875 207.25 C295.13137461 215.01734406 304.48013857 215.09146651 315 216 C315 218.97 315 221.94 315 225 C279.69 225 244.38 225 208 225 C208 222.03 208 219.06 208 216 C209.05058594 215.85304688 210.10117188 215.70609375 211.18359375 215.5546875 C221.20205226 214.0128354 229.17606465 212.0044532 235.875 203.8125 C241.51220034 194.59159687 241.40348837 184.27004743 241.2487793 173.7980957 C241.23804812 172.29896416 241.22867721 170.79982236 241.22055054 169.30067444 C241.19486905 165.26405706 241.15035413 161.22784872 241.10225272 157.19144464 C241.05510764 152.96082221 241.0255664 148.73007617 240.99409485 144.49931335 C240.93196669 136.50261057 240.85418771 128.50614104 240.77067453 120.5096361 C240.6763025 111.39961688 240.59954699 102.28947527 240.52421319 93.17928183 C240.3689677 74.45265267 240.19178773 55.72628879 240 37 C230.60009445 58.33328176 221.20762246 79.66609661 212.12857056 101.13839722 C203.9605032 120.4502654 195.68152107 139.71194963 187.3125 158.9375 C176.73694735 183.23346449 166.33676962 207.60160073 156 232 C149.73 232 143.46 232 137 232 C135.65421875 228.65488281 135.65421875 228.65488281 134.28125 225.2421875 C127.72120672 208.9655642 121.08827141 192.72438051 114.25 176.5625 C108.28622953 162.46515897 102.39720075 148.33876814 96.5625 134.1875 C96.16344452 133.21965576 95.76438904 132.25181152 95.35324097 131.25463867 C93.74664931 127.35777689 92.14010043 123.46089749 90.53382874 119.56390381 C86.82508658 110.56903739 83.09621663 101.58257772 79.3649292 92.5970459 C70.84947816 72.08944165 62.41104317 51.55062247 54 31 C53.89163316 56.29782152 53.93716162 81.57531599 54.57550049 106.86633301 C54.8952206 119.7312488 55.02706463 132.58287383 54.94102859 145.45084763 C54.92582634 147.75877991 54.91296803 150.06671457 54.90072632 152.37466431 C54.86307488 159.1950514 54.81748248 166.01471322 54.72555256 172.83460999 C54.69141127 175.66162224 54.67373276 178.4885803 54.65993309 181.31575775 C54.6449765 183.26236346 54.60898118 185.208772 54.57234192 187.15509033 C54.55114234 194.33186556 55.27770011 198.84563823 59 205 C59 205.66 59 206.32 59 207 C65.74799046 210.50895504 71.38671758 212.48224269 78.9375 213.1875 C80.10635742 213.3102832 80.10635742 213.3102832 81.29882812 213.43554688 C83.19820797 213.63364171 85.09898762 213.81823841 87 214 C87.33 217.96 87.66 221.92 88 226 C80.25213125 226.02296136 72.50428246 226.04114517 64.75638866 226.05181217 C61.15536889 226.05694213 57.55437437 226.06384958 53.95336914 226.07543945 C35.2724965 226.13400072 16.66550882 225.85284636 -2 225 C-2 221.37 -2 217.74 -2 214 C-0.53240234 213.88785156 -0.53240234 213.88785156 0.96484375 213.7734375 C13.38303084 212.52795561 19.89512456 208.74486314 28.2734375 199.5390625 C32.41305595 193.4513883 33.57010362 186.96216679 34.17089844 179.78344727 C34.25060757 178.88242311 34.3303167 177.98139894 34.41244125 177.05307102 C35.40642331 164.54442497 35.28800616 152.00392787 35.265625 139.46484375 C35.26607324 136.76591345 35.26891817 134.06698632 35.27142334 131.36805725 C35.27502791 125.75324494 35.27035273 120.13848582 35.26074219 114.52368164 C35.24981638 108.06656004 35.25342719 101.6095644 35.264395 95.15244573 C35.27351182 89.55696577 35.27473322 83.96152338 35.26951766 78.36603838 C35.2664281 75.04599753 35.26671188 71.72602774 35.27259064 68.40598869 C35.27770433 64.71059653 35.26987997 61.01544288 35.25878906 57.32006836 C35.26283752 56.24606277 35.26688599 55.17205719 35.27105713 54.06550598 C35.21279222 43.51633127 34.92397212 31.46921334 27.4296875 23.28515625 C21.48208526 17.83096495 14.84473863 15.71009536 7.0625 14.3125 C6.37865234 14.18294922 5.69480469 14.05339844 4.99023438 13.91992188 C3.32816202 13.60610402 1.66425873 13.30200834 0 13 C0 8.71 0 4.42 0 0 Z M52 27 C53 29 53 29 53 29 Z " fill="#FFFFFF" transform="translate(2445,519)"/>
<path d="M0 0 C16.76938472 -0.07041825 33.53872068 -0.12314755 50.308218 -0.15543652 C58.0964798 -0.17083454 65.88464915 -0.19178692 73.67285156 -0.22631836 C80.4695984 -0.25643922 87.26627822 -0.27562617 94.06308997 -0.28226548 C97.65420888 -0.28613981 101.24513624 -0.29509279 104.83619308 -0.31719017 C144.46662454 -0.55134878 180.14950658 7.37672034 209.375 35.875 C224.22708747 51.05939332 233.06945364 69.47627117 238 90 C238.36931641 91.52367187 238.36931641 91.52367187 238.74609375 93.078125 C244.25904831 121.51736645 238.8219902 150.89030065 223 175 C220.18337797 178.84904932 217.19134071 182.45711745 214 186 C213.30261719 186.77988281 212.60523437 187.55976562 211.88671875 188.36328125 C195.6507363 205.54908351 172.662031 215.48710472 150 220.75 C149.14720459 220.94875732 148.29440918 221.14751465 147.41577148 221.35229492 C130.12345211 225.13574996 113.16065946 225.2765601 95.53077316 225.20278788 C91.9860996 225.19012934 88.44142119 225.18909828 84.89672852 225.18673706 C78.21069473 225.18056608 71.52472778 225.16421581 64.83872318 225.14403808 C57.21577387 225.12154111 49.59282106 225.11065126 41.96984673 225.10064721 C26.31319162 225.07984471 10.65660713 225.04434416 -5 225 C-5 221.37 -5 217.74 -5 214 C-0.86968993 213.17393799 2.70020718 212.84736625 6.875 212.6875 C12.85265747 212.25026278 16.44889396 211.97011378 21 208 C26.94771438 199.86981394 26.70760105 191.10763883 26.63110352 181.47802734 C26.63624978 179.82452122 26.64353637 178.1710206 26.65278625 176.51753235 C26.67121572 172.05264484 26.6584167 167.5883586 26.63869596 163.12349653 C26.62224343 158.43873938 26.63113125 153.75401833 26.63621521 149.06924438 C26.64072791 141.20622207 26.62491527 133.3434383 26.59692383 125.48046875 C26.56485336 116.40191525 26.564899 107.32379127 26.5821386 98.24520719 C26.59802332 89.49288087 26.59125905 80.74071137 26.57420158 71.98839188 C26.56734594 68.27165148 26.56834816 64.55503735 26.57574654 60.8382988 C26.58342975 56.45993319 26.5712172 52.08205431 26.54389763 47.70377159 C26.53703485 46.10103105 26.53689315 44.49824487 26.54411316 42.89550591 C26.61630059 29.89841836 26.61630059 29.89841836 20.1328125 18.94140625 C13.43622542 14.34238827 6.99098652 14.02273396 -1 14 C-1.027193 12.41676312 -1.04648306 10.83338938 -1.0625 9.25 C-1.07410156 8.36828125 -1.08570313 7.4865625 -1.09765625 6.578125 C-1.00782264 4.20651759 -0.6117205 2.27754759 0 0 Z M66 18 C65.90651088 39.76627187 65.83599831 61.53251057 65.79275131 83.29894257 C65.77213621 93.40574358 65.74403568 103.51241975 65.69824219 113.61914062 C65.65834226 122.42934647 65.63255954 131.23946189 65.62364602 140.04975557 C65.61843663 144.7136991 65.60621454 149.37738397 65.57707977 154.04124451 C65.54986081 158.43415771 65.54156807 162.82670652 65.54756927 167.21969604 C65.54647193 168.82891319 65.53855659 170.43814295 65.5231781 172.04728699 C65.41678267 183.7578674 66.84553876 191.2648574 74.94140625 200.109375 C84.59851767 208.97852477 95.87878705 211.29546872 108.6328125 211.15234375 C119.82563173 210.6459401 130.37387493 208.49458437 141 205 C141.88300781 204.71382812 142.76601562 204.42765625 143.67578125 204.1328125 C162.71172773 197.27137087 175.98597872 182.21976979 184.71484375 164.5234375 C197.80484969 135.65501365 195.25766979 98.54066987 184.6875 69.125 C175.94896831 48.02012194 161.28514548 33.08665999 141 23 C133.46720722 19.98514522 126.25183305 17.86873239 118.1081543 17.88647461 C116.36691536 17.88658791 116.36691536 17.88658791 114.59049988 17.88670349 C113.34762711 17.89186478 112.10475433 17.89702606 110.82421875 17.90234375 C109.54392288 17.9037587 108.26362701 17.90517365 106.9445343 17.90663147 C103.5530296 17.91043603 100.16156823 17.92024857 96.77008057 17.93133545 C93.30440863 17.94159403 89.83872964 17.94613859 86.37304688 17.95117188 C79.58201252 17.96219245 72.79101019 17.9789243 66 18 Z " fill="#FFFFFF" transform="translate(1957,519)"/>
<path d="M0 0 C-0.00056554 1.69601805 -0.00056554 1.69601805 -0.0011425 3.4262991 C-0.00894815 30.94367298 0.01764927 58.46084992 0.0802784 85.97815609 C0.10976985 99.28539524 0.12810003 112.59238421 0.12011719 125.8996582 C0.11318736 137.49884827 0.12723773 149.09779116 0.16643608 160.69692045 C0.18645829 166.83811272 0.19600508 172.97891683 0.18042374 179.12013054 C0.16608366 184.90280321 0.17983698 190.68473457 0.21495247 196.46731186 C0.22290809 198.58725604 0.22068104 200.70726723 0.20739174 202.82718468 C-0.33459037 216.5493055 -0.33459037 216.5493055 5.4033947 228.53624821 C11.48633309 234.11302537 16.81305728 234.59570653 25 235 C25 239.29 25 243.58 25 248 C5.999065 249.16036244 -12.97336636 249.10543318 -32 249 C-32.06058594 247.95199219 -32.12117188 246.90398437 -32.18359375 245.82421875 C-32.26801738 244.44529952 -32.35266447 243.06639395 -32.4375 241.6875 C-32.47681641 240.99720703 -32.51613281 240.30691406 -32.55664062 239.59570312 C-32.74927415 236.52838465 -33.02322717 233.93031848 -34 231 C-34.62003906 231.49628906 -35.24007813 231.99257813 -35.87890625 232.50390625 C-54.18361433 246.5455091 -76.23598516 252.49331674 -99.23242188 249.73193359 C-118.98988818 246.57163299 -136.97723707 236.11247327 -149 220 C-162.98191735 199.18363798 -167.03633166 173.84957099 -162.47631836 149.2902832 C-158.37889237 129.67972819 -147.29579728 110.00894606 -131 98.125 C-113.56666093 86.80008671 -94.72451772 83.18928292 -74.30541992 87.03295898 C-62.40724253 89.65672998 -52.25558987 95.15727984 -43 103 C-42.8837865 94.79369315 -42.79512458 86.58773415 -42.74093914 78.38080597 C-42.71492328 74.56932868 -42.67967489 70.75841729 -42.62280273 66.94726562 C-42.56819246 63.26434322 -42.5385193 59.58196265 -42.52561378 55.89866638 C-42.51642543 54.49848407 -42.49848276 53.09832906 -42.47134972 51.69837952 C-42.32215654 43.67644236 -42.25721137 37.0828661 -48 31 C-53.83758501 25.98650501 -59.46779461 25.11865383 -67 24.6875 C-67.96550781 24.61466797 -68.93101563 24.54183594 -69.92578125 24.46679688 C-72.28319586 24.29174133 -74.64009937 24.13661572 -77 24 C-76.60350587 22.20376144 -76.18206548 20.41301565 -75.75 18.625 C-75.51796875 17.62726563 -75.2859375 16.62953125 -75.046875 15.6015625 C-74 13 -74 13 -72.33764648 11.91470337 C-69.42741316 10.7759511 -66.63554425 10.27476584 -63.55078125 9.76318359 C-62.91288666 9.65560226 -62.27499207 9.54802094 -61.61776733 9.43717957 C-59.51701355 9.08459193 -57.41485384 8.74134456 -55.3125 8.3984375 C-53.84798441 8.15514676 -52.38354859 7.91137543 -50.91918945 7.66714478 C-47.8533509 7.15721324 -44.78683642 6.65164129 -41.71972656 6.14941406 C-37.79111341 5.50597468 -33.86397864 4.85399875 -29.93727112 4.19904137 C-26.91453705 3.69543376 -23.89125093 3.19521121 -20.86776733 2.69612503 C-19.4195779 2.45687924 -17.97151743 2.21685151 -16.52359009 1.97602463 C-14.49932004 1.64009413 -12.47439448 1.30844806 -10.44921875 0.97802734 C-9.29768311 0.78864594 -8.14614746 0.59926453 -6.9597168 0.40414429 C-4 0 -4 0 0 0 Z M-103 118 C-103.78503906 118.75023437 -103.78503906 118.75023437 -104.5859375 119.515625 C-118.08331203 133.65573165 -119.63864277 153.00984637 -119.22265625 171.515625 C-118.61906948 188.80429114 -116.48011175 203.66785539 -106 218 C-105.40316406 218.81726563 -104.80632812 219.63453125 -104.19140625 220.4765625 C-98.76759792 227.21967556 -91.96705 231.86131738 -83.359375 233.50390625 C-73.19222264 233.999475 -65.15900491 229.13529956 -57.6796875 222.68359375 C-46.49103883 211.4786351 -40.89542691 198.15401761 -40.796875 182.35546875 C-40.79117493 181.62741531 -40.78547485 180.89936188 -40.77960205 180.14924622 C-40.7701908 178.608708 -40.76363355 177.06815 -40.75976562 175.52758789 C-40.75018653 173.23219756 -40.7191815 170.93775399 -40.6875 168.64257812 C-40.59047117 155.4349289 -41.19349324 141.17029993 -47.75 129.375 C-48.10143066 128.71387207 -48.45286133 128.05274414 -48.81494141 127.37158203 C-54.21353835 117.57917432 -61.90692771 112.3201615 -71.9375 107.625 C-84.96254925 104.96682668 -93.8185509 108.85762089 -103 118 Z " fill="#FFFFFF" transform="translate(1575,207)"/>
<path d="M0 0 C0 4.95 0 9.9 0 15 C-1.27875 15.02578125 -2.5575 15.0515625 -3.875 15.078125 C-5.58336565 15.13444475 -7.29169767 15.19179118 -9 15.25 C-9.83917969 15.26417969 -10.67835937 15.27835938 -11.54296875 15.29296875 C-17.4535401 15.52206066 -22.08478946 16.59898902 -27 20 C-28.87981194 21.91808613 -28.87981194 21.91808613 -29.9375 24.0625 C-30.31777344 24.73410156 -30.69804688 25.40570313 -31.08984375 26.09765625 C-32.77084126 29.61115748 -33.12973902 32.38183366 -33.14717102 36.22636414 C-33.15432632 37.30961975 -33.16148163 38.39287537 -33.16885376 39.50895691 C-33.17154266 40.69798111 -33.17423157 41.88700531 -33.17700195 43.11206055 C-33.18357315 44.36451569 -33.19014435 45.61697083 -33.19691467 46.90737915 C-33.2166789 51.06716144 -33.22832684 55.22690505 -33.23828125 59.38671875 C-33.24233089 60.82363211 -33.24644788 62.26054529 -33.25063133 63.69745827 C-33.26969409 70.45924261 -33.28391468 77.22101607 -33.2922433 83.98282212 C-33.30197645 91.75488121 -33.3281877 99.5266525 -33.36874419 107.29861039 C-33.39908874 113.32350181 -33.41372996 119.34831172 -33.41702431 125.37327796 C-33.41935689 128.96209826 -33.42807732 132.55061161 -33.45348549 136.13934898 C-33.60605102 158.87905604 -33.15866967 179.20405657 -16.60546875 196.64453125 C-4.14515033 207.9092569 11.41196573 212.64079141 28 212 C46.06713057 210.26277591 61.54354391 201.2177082 73.1875 187.4609375 C83.41611426 173.57294831 85.64967412 157.86962008 85.296875 141.1953125 C85.27802727 139.58946561 85.26088206 137.98359797 85.24530029 136.37771606 C85.19845574 132.1214431 85.12525006 127.86602174 85.04598999 123.61024475 C84.98485947 120.1406721 84.94012776 116.6709686 84.89533234 113.2011528 C84.76950546 103.53482864 84.58308077 93.87070686 84.36523438 84.20605469 C84.28491678 80.60559063 84.21602533 77.00515974 84.15625 73.40429688 C84.08219262 68.94562547 83.98963197 64.48769558 83.88387299 60.0296669 C83.84728373 58.36423484 83.81689157 56.69865274 83.79331207 55.03298569 C83.61392467 42.87121603 82.72923194 31.88694126 73.93359375 22.65625 C67.77486491 17.38089438 61.15122693 15.99058588 53.25 15.4375 C51.1875 15.293125 49.125 15.14875 47 15 C47 10.71 47 6.42 47 2 C79.34 2 111.68 2 145 2 C145 5.96 145 9.92 145 14 C143.94941406 13.99097656 142.89882812 13.98195312 141.81640625 13.97265625 C133.98539156 14.06874804 127.81300529 14.23998358 121.828125 19.859375 C112.59671046 30.66880912 110.53369541 42.69520391 110.63110352 56.58300781 C110.62733704 57.77825577 110.62357056 58.97350372 110.61968994 60.20497131 C110.61163656 63.44707468 110.61631805 66.68886947 110.62561536 69.93095875 C110.63118296 73.3521058 110.61657904 76.77315811 110.60325623 80.1942749 C110.56729527 90.34802633 110.56082078 100.50176913 110.56335449 110.65557861 C110.565075 118.55498696 110.55768244 126.4541642 110.52337593 134.35350871 C110.50947133 137.74433497 110.50330814 141.13477397 110.51642036 144.52561188 C110.59775027 170.42643808 107.61364308 190.56209859 89.25 210.125 C70.20144208 228.48286594 42.7852748 233.22745724 17.375 233.25 C16.34921341 233.25101212 16.34921341 233.25101212 15.30270386 233.25204468 C-10.13100939 233.21238269 -36.03980202 230.15679938 -56 213 C-56.60585937 212.50113281 -57.21171875 212.00226563 -57.8359375 211.48828125 C-71.31456031 199.38191642 -76.24469376 179.99845481 -77.18268967 162.6141243 C-77.25423569 159.15351681 -77.26736545 155.69813191 -77.25537109 152.23681641 C-77.26092809 150.24733551 -77.26648942 148.25785462 -77.27221513 146.2683742 C-77.27651392 144.16158389 -77.27609668 142.05484115 -77.27439499 139.94804764 C-77.27152875 135.53401554 -77.28603217 131.12013915 -77.30337524 126.70614624 C-77.35010104 114.1659369 -77.37435627 101.62574198 -77.38085938 89.08544922 C-77.38461559 82.13479339 -77.40267679 75.18431781 -77.43595374 68.23373926 C-77.4560822 63.85198221 -77.45858234 59.47069257 -77.44767356 55.08890843 C-77.44444303 51.7214407 -77.4671777 48.35423208 -77.48583984 44.98681641 C-77.47766739 43.78457428 -77.46949493 42.58233215 -77.46107483 41.34365845 C-77.54399303 32.93138133 -78.68243151 27.39296777 -84.75 21.1875 C-91.92459004 16.35844901 -98.43298897 15.53543819 -107 15 C-107 10.38 -107 5.76 -107 1 C-93.93486308 0.86926561 -80.86972299 0.73885229 -67.80457878 0.60884857 C-61.73788166 0.54847228 -55.67118568 0.48798551 -49.60449219 0.42724609 C-43.74954608 0.36863075 -37.89459715 0.31030581 -32.03964615 0.25218201 C-29.80615257 0.22995847 -27.57266002 0.20763038 -25.33916855 0.18519592 C-22.21032729 0.15378593 -19.08148255 0.12274802 -15.95263672 0.09179688 C-15.02978378 0.08244614 -14.10693085 0.0730954 -13.15611267 0.0634613 C-12.29803513 0.05504715 -11.43995758 0.046633 -10.55587769 0.03796387 C-9.44696073 0.02690235 -9.44696073 0.02690235 -8.3156414 0.01561737 C-5.54381909 -0.00307662 -2.77188536 0 0 0 Z " fill="#FFFFFF" transform="translate(1713,224)"/>
<path d="M0 0 C16.18656227 -0.0464559 32.3730967 -0.08206971 48.55970955 -0.10362434 C56.07677618 -0.11390208 63.59380043 -0.12789475 71.11083984 -0.15087891 C77.66876312 -0.17092076 84.22665567 -0.18374183 90.78460872 -0.18817699 C94.25147553 -0.19076625 97.7182545 -0.19677748 101.18509293 -0.21146011 C105.07149045 -0.22778352 108.95780494 -0.22797284 112.84423828 -0.22705078 C113.97209747 -0.23424133 115.09995667 -0.24143188 116.26199341 -0.24884033 C128.06370146 -0.21878112 139.40216314 1.30010677 150.5625 5.1875 C151.9079187 5.64987061 151.9079187 5.64987061 153.28051758 6.12158203 C170.67664341 12.28313412 183.4986513 21.174005 192 38 C198.6716079 54.10854893 198.9955653 71.23355534 192.62890625 87.50390625 C184.34059781 105.61097816 169.18599903 117.5612359 151 125 C139.02608616 129.24189261 127.12914152 130.15610165 114.52734375 130.09765625 C113.3636879 130.0962413 112.20003204 130.09482635 111.00111389 130.09336853 C107.31321557 130.08780628 103.62537973 130.07526083 99.9375 130.0625 C97.42513109 130.05748012 94.91276122 130.05291807 92.40039062 130.04882812 C86.26690605 130.03784923 80.13345749 130.02114903 74 130 C74.01490751 139.11939199 74.05664634 148.2381606 74.13209057 157.35725403 C74.16629624 161.59224447 74.19146047 165.82687663 74.19555664 170.06201172 C74.19985351 174.15371424 74.22842977 178.24460945 74.27343178 182.33605957 C74.28636272 183.89240811 74.29073012 185.44885349 74.28615379 187.00524902 C74.14819285 198.95255452 74.14819285 198.95255452 80 209 C81.97368465 210.8603911 81.97368465 210.8603911 84.0625 211.9375 C84.71347656 212.31777344 85.36445312 212.69804687 86.03515625 213.08984375 C89.78345911 214.82613513 93.31882115 215.15684304 97.421875 215.31640625 C98.44667969 215.35830078 99.47148438 215.40019531 100.52734375 215.44335938 C101.59082031 215.48267578 102.65429688 215.52199219 103.75 215.5625 C104.82894531 215.60568359 105.90789062 215.64886719 107.01953125 215.69335938 C109.67954211 215.79928901 112.33975456 215.90013456 115 216 C115 220.29 115 224.58 115 229 C76.39 229 37.78 229 -2 229 C-2 224.71 -2 220.42 -2 216 C-1.03320312 215.99742187 -0.06640625 215.99484375 0.9296875 215.9921875 C9.5061253 215.73744182 16.41879128 215.13918724 23 209 C27.72736956 202.76142214 30.11482597 197.41107746 30.16062927 189.56983948 C30.16571709 188.91420751 30.17080491 188.25857554 30.17604691 187.58307594 C30.19176805 185.3816393 30.20029573 183.1802355 30.20874023 180.97875977 C30.21827939 179.40174654 30.22817058 177.82473541 30.23838806 176.24772644 C30.26978043 171.06231165 30.29004774 165.87688083 30.30859375 160.69140625 C30.31189107 159.80825076 30.31518839 158.92509527 30.31858563 158.01517749 C30.34937842 149.67973988 30.37607718 141.3442986 30.39300442 133.00882053 C30.41488028 122.36228704 30.45677976 111.71625985 30.52644199 101.06992871 C30.57379759 93.576752 30.59795375 86.08371127 30.6052013 78.59038967 C30.61014215 74.11961654 30.62507153 69.64941392 30.6649456 65.1788044 C30.70202804 60.96543215 30.71015175 56.75295107 30.69693947 52.53944588 C30.69699307 51.00123007 30.70714646 49.46297261 30.7286911 47.92490768 C30.8581978 38.14885944 29.72111385 30.22282094 24 22 C17.3702948 15.3789357 8.90316457 14.3372342 0 13 C0 8.71 0 4.42 0 0 Z M74 19 C73.97682927 30.25703336 73.95906074 41.51406104 73.94818783 52.7711134 C73.94296937 57.99821503 73.93589051 63.22530034 73.92456055 68.45239258 C73.91369487 73.49685641 73.90771534 78.54130455 73.90512276 83.58577919 C73.90327516 85.51029012 73.89966729 87.43480018 73.89426994 89.35930443 C73.88701073 92.05490348 73.88601113 94.75043767 73.88647461 97.44604492 C73.88287933 98.24158279 73.87928406 99.03712067 73.87557983 99.85676575 C73.8827246 103.69719592 74.06383961 107.26721149 75 111 C106.84707761 112.10446542 106.84707761 112.10446542 135 99 C144.39723627 89.73127295 149.04921608 78.08105379 149.3125 65 C149.32685517 52.00378611 144.94470265 40.04098969 135.74609375 30.71484375 C126.6184244 22.87647601 116.1075926 18.82881944 104.17578125 18.90234375 C102.88367989 18.90446617 102.88367989 18.90446617 101.56547546 18.90663147 C98.81444831 18.9122286 96.06350256 18.92478054 93.3125 18.9375 C91.4472668 18.94251537 89.58203233 18.94707821 87.71679688 18.95117188 C83.14449989 18.96219708 78.57226375 18.97945973 74 19 Z " fill="#FFFFFF" transform="translate(1870,225)"/>
<path d="M0 0 C62.37 0 124.74 0 189 0 C189.63949808 4.47648657 190.1512008 8.53836347 190.31640625 13 C190.35838135 14.12438477 190.40035645 15.24876953 190.44360352 16.40722656 C190.48283936 17.5928418 190.5220752 18.77845703 190.5625 20 C190.6049585 21.22428711 190.64741699 22.44857422 190.69116211 23.70996094 C191.05865365 35.14138788 191.10886599 46.56404677 191 58 C188.69 58 186.38 58 184 58 C183.45472656 56.90042969 182.90945312 55.80085937 182.34765625 54.66796875 C175.02482728 40.19127394 165.26103031 23.57056877 149 18 C139.76481482 16.03770011 130.57879346 15.6699707 121.16796875 15.5859375 C119.9622522 15.56829346 118.75653564 15.55064941 117.51428223 15.5324707 C113.07214938 15.47008866 108.62980684 15.4234319 104.1875 15.375 C94.225625 15.25125 84.26375 15.1275 74 15 C74 43.38 74 71.76 74 101 C102.66559146 101.61151087 102.66559146 101.61151087 125.75 88.375 C130.74750002 82.35061641 133.16465346 74.72695545 134 67 C136.97 67 139.94 67 143 67 C143.13310834 74.13044446 143.26361372 81.26093214 143.39115143 88.39147854 C143.45050221 91.70558985 143.51087086 95.01967471 143.57275391 98.33374023 C143.89372537 115.55811679 144.06891342 132.77260191 144 150 C140.7 150 137.4 150 134 150 C132.96864052 147.61993966 132.0704433 145.26777785 131.41015625 142.7578125 C128.88805431 133.17680985 124.83220214 126.61529089 116.44140625 121.19140625 C110.83070109 118.45338213 105.2689783 117.68989788 99.09765625 117.5859375 C98.3750914 117.56657135 97.65252655 117.5472052 96.9080658 117.5272522 C94.62632625 117.46802395 92.34453467 117.42130145 90.0625 117.375 C88.5045367 117.33676777 86.94659334 117.29771308 85.38867188 117.2578125 C81.59261219 117.16237025 77.79645378 117.07813332 74 117 C73.9916794 126.64094621 74.01565714 136.28112467 74.0802784 145.92185974 C74.10928656 150.39905629 74.12738536 154.87573107 74.12011719 159.35302734 C74.11350459 163.67820949 74.13611739 168.00236237 74.17855453 172.32733154 C74.18965163 173.97300551 74.1904166 175.61878429 74.18042374 177.26446533 C73.92004302 188.7827208 73.92004302 188.7827208 79.33050537 198.61048889 C82.34903714 201.12279612 85.55323976 202.84379251 89.125 204.4375 C90.17880859 204.94313477 90.17880859 204.94313477 91.25390625 205.45898438 C109.94974957 214.27677815 142.39307308 212.3865402 162 206 C174.34130335 200.80116671 181.04091027 193.22990319 186.24072266 181.00146484 C188.44883637 175.18084869 189.7015095 169.07358459 191 163 C191.33 161.68 191.66 160.36 192 159 C195.63 158.67 199.26 158.34 203 158 C203.2118681 168.7315797 202.49615731 179.36147423 201.77319336 190.06420898 C201.56231065 193.1903069 201.35783711 196.31677565 201.15429688 199.44335938 C201.02120885 201.45575404 200.88775779 203.46812473 200.75390625 205.48046875 C200.6934462 206.40256638 200.63298615 207.324664 200.57069397 208.27470398 C200.51070724 209.15624649 200.45072052 210.037789 200.38891602 210.94604492 C200.33784195 211.70705002 200.28676788 212.46805511 200.23414612 213.25212097 C199.89984337 217.17541258 199.4348251 221.08657407 199 225 C133.33 225 67.66 225 0 225 C0 215 0 215 1 214 C3.02663436 213.80598297 5.05390573 213.61695076 7.08349609 213.45678711 C18.03871966 212.74364183 18.03871966 212.74364183 27 207 C32.30689688 199.35897819 31.5593098 190.33521507 31.50170898 181.45214844 C31.50549689 179.78407334 31.5110008 178.11600139 31.51808167 176.44793701 C31.53198782 171.9398785 31.52090265 167.43220369 31.50437045 162.92416668 C31.4904773 158.1992993 31.49698453 153.47445321 31.50050354 148.74957275 C31.50320124 140.8209416 31.48976438 132.89246223 31.46655273 124.96386719 C31.43990906 115.79955835 31.43820918 106.63550261 31.4499411 97.47116828 C31.46071932 88.64570616 31.45453383 79.82033553 31.44038582 70.99488068 C31.4346301 67.24218837 31.43470535 63.4895631 31.43945122 59.73686981 C31.44422327 55.32085096 31.43410996 50.90510946 31.41249657 46.48914337 C31.40693299 44.86901281 31.40645948 43.24885557 31.41144943 41.62872314 C31.41740725 39.41703041 31.40488898 37.20618435 31.38768005 34.99456787 C31.38403521 33.13855768 31.38403521 33.13855768 31.38031673 31.24505234 C30.80282544 26.31760819 29.08968257 23.86125053 25.2421875 20.8203125 C21.87628988 18.93054348 18.85023371 17.86231138 15.125 16.875 C13.908125 16.54757812 12.69125 16.22015625 11.4375 15.8828125 C10.303125 15.59148438 9.16875 15.30015625 8 15 C7.113125 14.77054688 6.22625 14.54109375 5.3125 14.3046875 C3.5449849 13.85649617 1.77310367 13.42554488 0 13 C0 8.71 0 4.42 0 0 Z " fill="#FFFFFF" transform="translate(2220,519)"/>
<path d="M0 0 C0 -4.62 0 -9.24 0 -14 C4.95 -14 9.9 -14 15 -14 C15.13023603 10.35413815 14.79091406 34.65835779 14 59 C10.04 59 6.08 59 2 59 C1.5978125 57.61941406 1.5978125 57.61941406 1.1875 56.2109375 C-5.38397184 34.60251039 -17.57752887 17.55273359 -37.8125 6.75 C-53.47285466 -0.56082883 -71.34678928 -3.18140878 -88.25 1.625 C-90.18843613 2.36175816 -92.10787578 3.15134626 -94 4 C-95.38638672 4.58394531 -95.38638672 4.58394531 -96.80078125 5.1796875 C-114.41025561 13.59836124 -125.83705382 32.26326221 -132.20532227 50.10058594 C-143.32342784 83.78473004 -141.85219055 127.80417876 -126.0625 159.6875 C-117.89367172 175.40805904 -106.44671649 185.30551572 -89.47558594 190.8203125 C-81.68634834 193.0420484 -74.134888 193.46504488 -66.08203125 193.39111328 C-64.00193753 193.37501499 -61.92378566 193.39105988 -59.84375 193.41015625 C-42.01102548 193.44136563 -25.2240995 188.0001242 -12.1628418 175.54296875 C-1.10557102 164.26398406 7.03286938 148.90139185 12 134 C16.92662882 132.72861192 20.53685423 133 26 133 C25.67 158.41 25.34 183.82 25 210 C20.05 210 15.1 210 10 210 C7.85531351 207.85531351 8.2604212 203.41555106 7.9375 200.4375 C7.80118164 199.22803711 7.80118164 199.22803711 7.66210938 197.99414062 C7.43752551 195.99652623 7.21826764 193.9983144 7 192 C6.175 192.49628906 5.35 192.99257813 4.5 193.50390625 C-28.48262201 213.03786777 -69.39960834 221.30177242 -107.3203125 213.04296875 C-136.07473446 204.89283004 -159.4416158 187.63885949 -174.18310547 161.41650391 C-184.31347113 142.69191367 -188.23213445 122.88361102 -188.25 101.6875 C-188.25067474 100.97135529 -188.25134949 100.25521057 -188.25204468 99.5173645 C-188.20134784 65.65329916 -176.5487387 35.57131748 -153 11 C-144.77554546 2.81136385 -135.23982849 -2.73748504 -125 -8 C-123.58074219 -8.74056641 -123.58074219 -8.74056641 -122.1328125 -9.49609375 C-83.1659214 -28.50577771 -35.55542027 -23.70361351 0 0 Z " fill="#FFFFFF" transform="translate(1664,535)"/>
<path d="M0 0 C0.74886475 0.00523682 1.49772949 0.01047363 2.26928711 0.01586914 C2.99768799 0.0183667 3.72608887 0.02086426 4.4765625 0.0234375 C5.40718506 0.0325415 6.33780762 0.04164551 7.29663086 0.05102539 C8.89094811 0.0625141 10.485268 0.0736403 12.07958984 0.08447266 C14.15686035 0.09899902 14.15686035 0.09899902 16.23413086 0.11352539 C24.41068299 19.70885803 32.38726482 39.37798844 40.24810791 59.10186768 C43.02081118 66.0587431 45.79997647 73.01303808 48.57894897 79.96741104 C49.1880901 81.49179203 49.79718063 83.01619323 50.40621948 84.54061508 C56.97090027 100.97141469 63.58768799 117.38040008 70.2744751 133.76190186 C71.34750804 136.39135464 72.41951202 139.02122576 73.49145508 141.65112305 C75.52448191 146.63820793 77.55937789 151.62452663 79.59564209 156.61029053 C80.38096483 158.53322772 81.16601053 160.45627808 81.95074463 162.37945557 C84.05603059 167.53722862 86.16935314 172.6915412 88.29681396 177.84020996 C88.90208261 179.30819433 89.50469305 180.77727882 90.10406494 182.24768066 C95.50064197 195.47885171 102.56317002 207.55576579 115.23413086 215.11352539 C118.21986281 216.25268096 121.07377049 216.71977557 124.23413086 217.11352539 C126.25631082 217.48119447 128.27714764 217.85632141 130.29663086 218.23852539 C131.92600586 218.52727539 133.55538086 218.81602539 135.23413086 219.11352539 C135.23413086 222.74352539 135.23413086 226.37352539 135.23413086 230.11352539 C107.87800131 230.82172594 80.53615589 231.2109514 53.17163086 231.17602539 C52.15834465 231.17474136 52.15834465 231.17474136 51.12458801 231.1734314 C42.82773841 231.16212855 34.53094029 231.14135985 26.23413086 231.11352539 C26.23413086 227.15352539 26.23413086 223.19352539 26.23413086 219.11352539 C32.19819164 216.77467802 38.19347225 214.94868616 44.37866211 213.27368164 C47.6496572 211.94470005 48.73678445 211.30261054 50.23413086 208.11352539 C50.63794486 201.90272256 49.60853412 197.08883579 47.60913086 191.23852539 C47.20960205 190.02362427 47.20960205 190.02362427 46.80200195 188.78417969 C45.95709491 186.22347283 45.09594 183.66858704 44.23413086 181.11352539 C43.6549192 179.36779181 43.07678334 177.62170089 42.49975586 175.87524414 C41.0902848 171.61710574 39.66622597 167.36410556 38.23413086 163.11352539 C32.49810243 162.31013833 26.88128512 161.91701773 21.09350586 161.79711914 C20.22463745 161.77629272 19.35576904 161.75546631 18.46057129 161.73400879 C15.63517534 161.66823198 12.80969298 161.60919312 9.98413086 161.55102539 C8.53846741 161.51925705 8.53846741 161.51925705 7.06359863 161.48684692 C-11.88071329 161.07296162 -30.8179864 160.99816267 -49.76586914 161.11352539 C-51.45847172 166.16659305 -53.14909293 171.22031763 -54.83789062 176.2746582 C-55.41254289 177.99358984 -55.98773384 179.7123415 -56.56347656 181.4309082 C-57.39147747 183.90276596 -58.21753183 186.37526691 -59.04321289 188.84790039 C-59.30053696 189.6147113 -59.55786102 190.38152222 -59.82298279 191.17156982 C-62.09786138 197.99549018 -63.59945727 203.87701391 -62.76586914 211.11352539 C-60.08668485 215.46719987 -55.4535377 216.62001474 -50.76586914 218.11352539 C-47.78415929 218.80802504 -44.78880791 219.32165122 -41.76586914 219.80102539 C-40.6037793 219.99535156 -40.6037793 219.99535156 -39.41821289 220.19360352 C-37.53528113 220.50742548 -35.65073209 220.81151894 -33.76586914 221.11352539 C-33.76586914 224.41352539 -33.76586914 227.71352539 -33.76586914 231.11352539 C-59.17586914 231.11352539 -84.58586914 231.11352539 -110.76586914 231.11352539 C-109.76586914 222.11352539 -109.76586914 222.11352539 -108.32836914 219.86352539 C-105.91567565 218.21583228 -103.58890578 217.04669696 -100.95336914 215.80102539 C-87.08488673 209.03988565 -82.88664652 195.04214858 -77.92895508 181.30599976 C-67.94911527 153.72922084 -56.10346157 126.93139344 -44.0065918 100.22729492 C-35.35798022 81.1317583 -27.11131308 61.90370149 -19.20336914 42.48852539 C-18.78216797 41.45475769 -18.3609668 40.42098999 -17.92700195 39.355896 C-13.47427895 28.41172526 -9.0634464 17.4544867 -4.86192322 6.41098022 C-2.46501101 0.1584723 -2.46501101 0.1584723 0 0 Z M-4.76586914 55.11352539 C-8.90564962 65.43978912 -13.04355837 75.76680069 -17.1790905 86.09476662 C-19.09951495 90.89061295 -21.02057903 95.68620096 -22.94311523 100.48120117 C-24.7990241 105.11009464 -26.65323924 109.73966323 -28.50629044 114.36970139 C-29.21296243 116.13453612 -29.92024061 117.89912825 -30.6281395 119.66347122 C-31.62081321 122.13787902 -32.61131292 124.6131467 -33.60131836 127.08862305 C-33.89335144 127.81511047 -34.18538452 128.5415979 -34.48626709 129.2901001 C-34.75826935 129.97148041 -35.03027161 130.65286072 -35.31051636 131.35488892 C-35.54465178 131.93930567 -35.77878719 132.52372242 -36.02001762 133.12584877 C-37.00915061 135.76186474 -37.87553413 138.44252037 -38.76586914 141.11352539 C-16.65586914 141.11352539 5.45413086 141.11352539 28.23413086 141.11352539 C26.48605413 135.28660295 24.83226875 129.79522068 22.65991211 124.17602539 C22.41876678 123.54880585 22.17762146 122.9215863 21.9291687 122.27536011 C21.13827251 120.2201327 20.34241231 118.16686554 19.54663086 116.11352539 C18.69199274 113.89583682 17.83869298 111.67763581 16.98536682 109.45944214 C16.37922573 107.88418054 15.77263907 106.30909032 15.16563416 104.73416138 C11.58761755 95.44794834 8.04875736 86.14684325 4.50912476 76.84594727 C3.08912471 73.11485581 1.668219 69.38410952 0.24734497 65.65335083 C-1.09062164 62.14016269 -2.42826049 58.62684983 -3.76586914 55.11352539 C-4.09586914 55.11352539 -4.42586914 55.11352539 -4.76586914 55.11352539 Z " fill="#FFFFFF" transform="translate(1813.765869140625,515.886474609375)"/>
<path d="M0 0 C5.94 0 11.88 0 18 0 C21.4517531 7.46848439 24.67220346 14.98111056 27.703125 22.62890625 C28.13788147 23.71933228 28.57263794 24.8097583 29.02056885 25.93322754 C29.9499533 28.2647898 30.87820887 30.59680231 31.80541992 32.92922974 C34.0261984 38.51472031 36.25466225 44.09714142 38.48291016 49.67965508 C39.23456545 51.5629772 39.98594617 53.4464087 40.73730469 55.32984924 C44.96316587 65.9189299 49.21818463 76.49593046 53.5 87.0625 C53.83095673 87.87924194 54.16191345 88.69598389 54.50289917 89.53747559 C56.99827671 95.69313708 59.49862648 101.84677302 62 108 C62.43008362 109.05823975 62.86016724 110.11647949 63.30328369 111.20678711 C68.94867594 125.09671894 74.60367005 138.98266859 80.27470398 152.8621521 C82.51386276 158.34571309 84.74337736 163.83283238 86.95082092 169.32923889 C87.78360228 171.40086711 88.62069933 173.47068561 89.4597168 175.53979492 C90.39419092 177.84641607 91.32112868 180.15611739 92.23754883 182.4699707 C96.15489388 192.07903811 101.13589751 200.74830422 108.625 208 C109.52476562 208.886875 110.42453125 209.77375 111.3515625 210.6875 C116.37181077 215.07096162 119.96678361 216.40270828 126.625 217.125 C133.7157781 217.90525937 133.7157781 217.90525937 137 219 C137.33 222.63 137.66 226.26 138 230 C111.80727841 230.65809979 85.61988253 231.10488536 59.41885376 231.12231445 C56.76014042 231.12410784 54.10142768 231.12753127 51.44271851 231.13256836 C47.71048271 231.13839911 43.97833022 231.13700617 40.24609375 231.1328125 C39.11927185 231.13479645 37.99244995 231.1367804 36.83148193 231.13882446 C35.29925995 231.13415665 35.29925995 231.13415665 33.73608398 231.12939453 C32.84098618 231.12859894 31.94588837 231.12780334 31.02366638 231.12698364 C29 231 29 231 28 230 C27.92773498 228.14712498 27.9161878 226.29166122 27.9375 224.4375 C27.94652344 223.42558594 27.95554687 222.41367187 27.96484375 221.37109375 C27.98224609 220.19740234 27.98224609 220.19740234 28 219 C33.96429426 216.66106107 39.9766393 214.7978975 46.14453125 213.0625 C49.02501392 211.99069249 50.11840544 211.34682213 52 209 C54.32878057 200.05780994 49.37186732 189.89336833 46.5 181.5625 C45.71103905 179.23677406 44.92636487 176.90970311 44.14611816 174.58103943 C43.66233455 173.14111271 43.17289569 171.70307048 42.67712402 170.26722717 C41.69496322 167.3764146 41 165.07720961 41 162 C11.63 161.34 -17.74 160.68 -48 160 C-48.99 163.3 -49.98 166.6 -51 170 C-51.73356829 172.311347 -52.47493815 174.62024265 -53.2265625 176.92578125 C-53.6184375 178.13427734 -54.0103125 179.34277344 -54.4140625 180.58789062 C-55.22784406 183.09092518 -56.04296937 185.59352322 -56.859375 188.09570312 C-57.44332031 189.8987793 -57.44332031 189.8987793 -58.0390625 191.73828125 C-58.39178223 192.82149658 -58.74450195 193.90471191 -59.10791016 195.02075195 C-60.6178271 200.06331255 -61.56532397 204.72364296 -61 210 C-55.66224415 217.1170078 -47.85739882 218.46431992 -39.5625 219.6875 C-38.32209961 219.88182617 -38.32209961 219.88182617 -37.05664062 220.08007812 C-35.0390302 220.3949653 -33.0196769 220.69865138 -31 221 C-31 224.3 -31 227.6 -31 231 C-56.41 231 -81.82 231 -108 231 C-107 220 -107 220 -104.48828125 217.7890625 C-103.44027344 217.40492188 -102.39226562 217.02078125 -101.3125 216.625 C-99.67861328 215.94050781 -99.67861328 215.94050781 -98.01171875 215.2421875 C-97.01785156 214.83226562 -96.02398438 214.42234375 -95 214 C-82.61561384 206.78628423 -78.45339564 188.0528756 -73.67919922 175.53759766 C-65.03248811 152.87423956 -55.70819878 130.5864906 -45.703125 108.48828125 C-45.33088806 107.66611618 -44.95865112 106.84395111 -44.57513428 105.99687195 C-44.19874817 105.16557266 -43.82236206 104.33427338 -43.43457031 103.4777832 C-30.74061709 75.43571711 -18.93178987 47.08056279 -7.5859375 18.46875 C-5.12739843 12.28238825 -2.5762011 6.1382409 0 0 Z M-3 56 C-3.22169357 56.55534424 -3.44338715 57.11068848 -3.67179871 57.68286133 C-6.04933571 63.63804743 -8.42815868 69.5927188 -10.80773926 75.54708862 C-11.72503959 77.84267267 -12.64211442 80.13834683 -13.55895996 82.43411255 C-18.07878819 93.7502514 -22.59853897 105.0658316 -27.22265625 116.33984375 C-27.68583504 117.47070908 -27.68583504 117.47070908 -28.15837097 118.62442017 C-29.56231528 122.05011016 -30.97205085 125.47322483 -32.39135742 128.89257812 C-33.11802612 130.66084961 -33.11802612 130.66084961 -33.859375 132.46484375 C-34.27670898 133.471521 -34.69404297 134.47819824 -35.12402344 135.51538086 C-36.16625009 138.03246583 -36.16625009 138.03246583 -36 141 C-14.22 141 7.56 141 30 141 C29.09472717 136.47363586 27.775981 132.42065431 26.1484375 128.1328125 C25.7117852 126.96896278 25.7117852 126.96896278 25.26631165 125.78160095 C24.30670822 123.22780923 23.3412156 120.67629675 22.375 118.125 C21.7053851 116.35086779 21.03587151 114.57669734 20.36645508 112.80249023 C18.60884603 108.14902965 16.8447654 103.49804465 15.07952881 98.84747314 C14.00174416 96.00460056 12.92737133 93.160461 11.85400391 90.31591797 C10.13521864 85.76215316 8.40881341 81.21135141 6.67633057 76.66278076 C6.01743863 74.93012395 5.36081902 73.19660131 4.70648193 71.46221924 C3.79414055 69.04639697 2.87291719 66.63415468 1.94921875 64.22265625 C1.6790242 63.50166245 1.40882965 62.78066864 1.13044739 62.03782654 C-0.09276053 58.32625847 -0.09276053 58.32625847 -3 56 Z " fill="#FFFFFF" transform="translate(1337,516)"/>
<path d="M0 0 C32.67 0 65.34 0 99 0 C99 4.29 99 8.58 99 13 C94.53928734 14.48690422 90.0256891 14.33651295 85.34765625 14.5234375 C81.04151814 15.13603569 81.04151814 15.13603569 78 18 C76.43928773 25.20034127 80.74630046 30.91134402 84.1875 37 C84.82244385 38.15064941 85.4573877 39.30129883 86.11157227 40.48681641 C88.05373433 44.00303909 90.02412645 47.50260351 92 51 C92.56009766 51.99225586 93.12019531 52.98451172 93.69726562 54.00683594 C95.79930973 57.72455374 97.90424753 61.44053383 100.02099609 65.14990234 C103.04235316 70.46313402 105.99226131 75.80928967 108.8671875 81.203125 C109.19592361 81.81979034 109.52465973 82.43645569 109.86335754 83.07180786 C111.45802767 86.06791706 113.04523104 89.06763732 114.62475586 92.07177734 C118.7830827 99.92492873 123.26085839 107.48753713 128 115 C133.79591095 105.81886673 139.48159068 96.58008301 145.05053711 87.25952148 C149.07934948 80.52127759 153.14666362 73.80694076 157.2265625 67.09954834 C158.31024019 65.31621881 159.39179855 63.53162194 160.47265625 61.74658203 C163.73639158 56.35845773 167.00717823 50.97591393 170.33027649 45.62413025 C171.40264206 43.89430576 172.46929676 42.16110248 173.53393555 40.42651367 C174.85553268 38.27559803 176.18725642 36.13086149 177.53051758 33.9934082 C178.11986084 33.02878662 178.7092041 32.06416504 179.31640625 31.0703125 C179.83662354 30.23258301 180.35684082 29.39485352 180.89282227 28.53173828 C182.23267763 25.46794554 182.32564189 23.31300307 182 20 C179.84909549 16.66238955 178.79587201 15.26529067 175 14 C172.77425665 13.77548542 170.54418481 13.59217122 168.3125 13.4375 C166.229375 13.293125 164.14625 13.14875 162 13 C162 8.71 162 4.42 162 0 C169.61577557 -0.02272844 177.23153822 -0.0410168 184.84733963 -0.05181217 C188.38489304 -0.05699733 191.92242174 -0.06401409 195.45996094 -0.07543945 C199.54101783 -0.08853548 203.62204938 -0.09326427 207.703125 -0.09765625 C208.95361633 -0.10281754 210.20410767 -0.10797882 211.49249268 -0.11329651 C219.05636893 -0.11377246 226.47035903 0.27173151 234 1 C234 4.96 234 8.92 234 13 C231.339375 13.2784375 231.339375 13.2784375 228.625 13.5625 C221.74538856 14.7131535 217.19763867 17.44895753 212 22 C211.20650146 22.69379761 211.20650146 22.69379761 210.39697266 23.40161133 C205.07790576 28.34794339 201.62160072 34.06303344 198 40.3125 C197.35554932 41.40554443 196.71109863 42.49858887 196.04711914 43.62475586 C194.01822233 47.07567766 192.00630918 50.53592907 190 54 C189.36433105 55.09505859 188.72866211 56.19011719 188.07373047 57.31835938 C184.92990161 62.74026624 181.79991907 68.1699514 178.6796875 73.60546875 C175.1712567 79.71338654 171.62118817 85.79626933 168.0625 91.875 C162.13647382 102.00396587 156.30246942 112.18379053 150.50415039 122.38623047 C149.5585022 124.0474292 149.5585022 124.0474292 148.59375 125.7421875 C147.99119385 126.8161377 147.3886377 127.89008789 146.76782227 128.99658203 C145 132 145 132 143.21459961 134.49951172 C138.07069451 141.82974712 138.25594378 148.66161131 138.5625 157.375 C138.59233123 158.8028536 138.61998217 160.23075434 138.64550781 161.65869141 C138.70218288 164.47908838 138.7783331 167.29783178 138.87353516 170.1171875 C138.98288473 173.474515 139.05313192 176.82893877 139.10546875 180.1875 C139.36468264 191.60846383 140.57068728 200.71941427 148.33984375 209.52734375 C152.70797931 213.40213694 156.55324599 214.48777755 162.3125 215.1875 C163.56675781 215.34605469 164.82101563 215.50460937 166.11328125 215.66796875 C167.06589844 215.77753906 168.01851562 215.88710938 169 216 C169 218.97 169 221.94 169 225 C134.68 225 100.36 225 65 225 C65 222.03 65 219.06 65 216 C65.89460938 215.97421875 66.78921875 215.9484375 67.7109375 215.921875 C77.0009283 215.48609718 85.8227061 214.88452515 92.4375 207.6875 C97.7965698 201.08064679 98.51181653 194.40175142 98.64453125 186.1953125 C98.66400314 185.15792938 98.68347504 184.12054626 98.70353699 183.05172729 C98.73616639 180.8581636 98.76001572 178.66445389 98.77563477 176.47070312 C98.81202909 173.16773708 98.91793261 169.87162039 99.02539062 166.5703125 C99.26417903 152.87747381 97.35726541 143.89227645 89.27444458 132.79309082 C87.40472 130.16246565 85.84677159 127.37951586 84.26953125 124.56640625 C83.70234375 123.58220703 83.13515625 122.59800781 82.55078125 121.58398438 C81.97714844 120.58689453 81.40351563 119.58980469 80.8125 118.5625 C79.5169472 116.31379049 78.22137368 114.06509292 76.92578125 111.81640625 C76.27561035 110.68734863 75.62543945 109.55829102 74.95556641 108.39501953 C71.80667946 102.9283002 68.65316736 97.46425113 65.5 92 C64.2499765 89.83334689 62.99997653 87.66668021 61.75 85.5 C61.13125 84.4275 60.5125 83.355 59.875 82.25 C54.25 72.5 54.25 72.5 52.37255859 69.24536133 C51.1311669 67.09388548 49.88931018 64.94267788 48.64697266 62.79174805 C45.73310475 57.74551084 42.82381662 52.69680739 39.93145752 47.63821411 C38.90793591 45.84863873 37.88290746 44.05993494 36.85742188 42.27148438 C35.57186624 40.02841144 34.28913831 37.7837146 33.00976562 35.53710938 C26.09890606 22.84611022 26.09890606 22.84611022 14 16 C9.35700999 14.8613386 4.69807934 13.88214292 0 13 C0 8.71 0 4.42 0 0 Z " fill="#FFFFFF" transform="translate(2766,519)"/>
<path d="M0 0 C10.52661284 9.04892623 15.20617372 17.81697773 20 31 C20 39.58 20 48.16 20 57 C-14.65 57 -49.3 57 -85 57 C-84.20633454 90.45611576 -84.20633454 90.45611576 -67 116 C-56.44824363 124.77126462 -43.50022764 127.93653412 -30 127 C-14.7222802 124.77370126 -3.61980778 116.5815382 7 106 C10.66786393 107.50349377 12.68910393 109.63728792 15.25 112.625 C15.95640625 113.44226563 16.6628125 114.25953125 17.390625 115.1015625 C17.92171875 115.72804688 18.4528125 116.35453125 19 117 C14.6954677 128.12436358 -1.71871142 136.32985536 -12 141 C-36.63975849 151.12679788 -62.11699475 151.89821203 -87 142 C-105.45003444 133.7466686 -117.49889006 119.40704109 -125 101 C-133.25788173 78.19633492 -133.42387745 52.96724733 -123.8671875 30.64453125 C-113.87657801 10.13894327 -95.82374748 -2.88744687 -75 -11 C-49.81486113 -19.11427551 -21.36123127 -16.07565574 0 0 Z M-73.25 17.8125 C-77.21197553 23.39381158 -79.74484485 29.36809756 -80.54760742 36.16796875 C-80.69689697 37.43253906 -80.84618652 38.69710937 -81 40 C-73.56185638 40.02538517 -66.12372397 40.04288172 -58.68554688 40.05493164 C-56.15592023 40.05995589 -53.62629649 40.06677638 -51.09667969 40.07543945 C-47.45767501 40.08758853 -43.81870878 40.09324746 -40.1796875 40.09765625 C-38.48717361 40.10539818 -38.48717361 40.10539818 -36.76046753 40.11329651 C-35.69982086 40.11337204 -34.63917419 40.11344757 -33.54638672 40.11352539 C-32.61817108 40.115746 -31.68995544 40.11796661 -30.73361206 40.12025452 C-27.75826858 39.98936598 -24.92579758 39.54351624 -22 39 C-21.33304126 27.01326935 -23.30680447 19.33356001 -30.95703125 10.01953125 C-35.74973795 5.2818078 -41.33224271 2.77192272 -48.0625 2.4375 C-58.84729463 3.07884929 -66.70057898 9.68727843 -73.25 17.8125 Z " fill="#FFFFFF" transform="translate(1370,308)"/>
<path d="M0 0 C5.32293184 3.96719555 7.51976673 10.0883385 8.87109375 16.39453125 C11.71537279 35.88620818 9.16437756 54.75204389 4.71630859 73.78417969 C-2.65929677 105.44913047 -4.05359659 137.02205085 -5.12890625 169.39453125 C-11.06890625 169.72453125 -17.00890625 170.05453125 -23.12890625 170.39453125 C-23.14308594 168.16445313 -23.15726563 165.934375 -23.171875 163.63671875 C-23.53713266 130.53435652 -27.87394045 98.67172603 -35.12890625 66.39453125 C-38.28468892 52.26050193 -39.64439304 38.89033214 -38.44140625 24.45703125 C-38.37606689 23.59319824 -38.31072754 22.72936523 -38.2434082 21.83935547 C-37.38672688 13.19594878 -34.88772 6.22709908 -28.10546875 0.5859375 C-19.8991166 -4.36057911 -8.44713382 -4.38630986 0 0 Z " fill="#FFFFFF" transform="translate(2130.12890625,223.60546875)"/>
<path d="M0 0 C5.93325713 3.85320722 9.46332943 9.482911 11.0390625 16.32421875 C12.06929113 23.66459775 9.94524139 29.57084924 5.7890625 35.57421875 C0.24220075 41.1210805 -4.44754797 42.99386179 -12.1875 43.41796875 C-18.92326459 43.19028093 -24.53580257 40.79606033 -29.453125 36.1875 C-33.13167094 31.64173209 -35.12301495 26.02899604 -35.3984375 20.19921875 C-34.53221365 12.52695035 -31.89347517 6.44070866 -25.9609375 1.32421875 C-17.73048629 -4.02084439 -8.73639642 -4.39906887 0 0 Z " fill="#FFFFFF" transform="translate(2128.9609375,413.67578125)"/>
<path d="M0 0 C3 1 3 1 4.07495117 2.9777832 C4.39439697 3.82687256 4.71384277 4.67596191 5.04296875 5.55078125 C5.39423828 6.47697266 5.74550781 7.40316406 6.10742188 8.35742188 C6.64206055 9.82018555 6.64206055 9.82018555 7.1875 11.3125 C7.73954102 12.75786133 7.73954102 12.75786133 8.30273438 14.23242188 C9.87408375 18.43920695 11 21.45519529 11 26 C4.4 26 -2.2 26 -9 26 C-8.32637189 21.95823134 -7.78010134 18.99128538 -6.40625 15.29296875 C-6.09816406 14.45958984 -5.79007812 13.62621094 -5.47265625 12.76757812 C-5.15167969 11.91615234 -4.83070313 11.06472656 -4.5 10.1875 C-4.01853516 8.88135742 -4.01853516 8.88135742 -3.52734375 7.54882812 C-1.13943129 1.13943129 -1.13943129 1.13943129 0 0 Z " fill="#DCF6F2" transform="translate(379,601)"/>
<path d="M0 0 C0 16.17 0 32.34 0 49 C-0.33 49 -0.66 49 -1 49 C-1.33 34.81 -1.66 20.62 -2 6 C-2.66 6 -3.32 6 -4 6 C-3.625 3.5625 -3.625 3.5625 -3 1 C-1 0 -1 0 0 0 Z " fill="#67E2CE" transform="translate(540,597)"/>
<path d="M0 0 C0 4.29 0 8.58 0 13 C-0.33 13 -0.66 13 -1 13 C-1.33 10.69 -1.66 8.38 -2 6 C-2.66 6 -3.32 6 -4 6 C-3.625 3.5625 -3.625 3.5625 -3 1 C-1 0 -1 0 0 0 Z " fill="#90E3D7" transform="translate(540,597)"/>
</svg>
